%TF.GenerationSoftware,KiCad,Pcbnew,5.1.12-84ad8e8a86~92~ubuntu16.04.1*%
%TF.CreationDate,2022-04-25T15:27:55-03:00*%
%TF.ProjectId,Avionica,4176696f-6e69-4636-912e-6b696361645f,rev?*%
%TF.SameCoordinates,Original*%
%TF.FileFunction,Legend,Bot*%
%TF.FilePolarity,Positive*%
%FSLAX46Y46*%
G04 Gerber Fmt 4.6, Leading zero omitted, Abs format (unit mm)*
G04 Created by KiCad (PCBNEW 5.1.12-84ad8e8a86~92~ubuntu16.04.1) date 2022-04-25 15:27:55*
%MOMM*%
%LPD*%
G01*
G04 APERTURE LIST*
%ADD10C,0.250000*%
%ADD11C,0.010000*%
G04 APERTURE END LIST*
D10*
X114802857Y-56773571D02*
X114469523Y-56773571D01*
X114326666Y-57297380D02*
X114802857Y-57297380D01*
X114802857Y-56297380D01*
X114326666Y-56297380D01*
X113469523Y-56630714D02*
X113469523Y-57630714D01*
X113469523Y-57249761D02*
X113564761Y-57297380D01*
X113755238Y-57297380D01*
X113850476Y-57249761D01*
X113898095Y-57202142D01*
X113945714Y-57106904D01*
X113945714Y-56821190D01*
X113898095Y-56725952D01*
X113850476Y-56678333D01*
X113755238Y-56630714D01*
X113564761Y-56630714D01*
X113469523Y-56678333D01*
X112564761Y-56630714D02*
X112564761Y-57297380D01*
X112993333Y-56630714D02*
X112993333Y-57154523D01*
X112945714Y-57249761D01*
X112850476Y-57297380D01*
X112707619Y-57297380D01*
X112612380Y-57249761D01*
X112564761Y-57202142D01*
X112088571Y-57297380D02*
X112088571Y-56630714D01*
X112088571Y-56297380D02*
X112136190Y-56345000D01*
X112088571Y-56392619D01*
X112040952Y-56345000D01*
X112088571Y-56297380D01*
X112088571Y-56392619D01*
X111612380Y-56630714D02*
X111612380Y-57630714D01*
X111612380Y-56678333D02*
X111517142Y-56630714D01*
X111326666Y-56630714D01*
X111231428Y-56678333D01*
X111183809Y-56725952D01*
X111136190Y-56821190D01*
X111136190Y-57106904D01*
X111183809Y-57202142D01*
X111231428Y-57249761D01*
X111326666Y-57297380D01*
X111517142Y-57297380D01*
X111612380Y-57249761D01*
X110326666Y-57249761D02*
X110421904Y-57297380D01*
X110612380Y-57297380D01*
X110707619Y-57249761D01*
X110755238Y-57154523D01*
X110755238Y-56773571D01*
X110707619Y-56678333D01*
X110612380Y-56630714D01*
X110421904Y-56630714D01*
X110326666Y-56678333D01*
X110279047Y-56773571D01*
X110279047Y-56868809D01*
X110755238Y-56964047D01*
X109136190Y-57011666D02*
X108660000Y-57011666D01*
X109231428Y-57297380D02*
X108898095Y-56297380D01*
X108564761Y-57297380D01*
X108231428Y-56630714D02*
X108231428Y-57297380D01*
X108231428Y-56725952D02*
X108183809Y-56678333D01*
X108088571Y-56630714D01*
X107945714Y-56630714D01*
X107850476Y-56678333D01*
X107802857Y-56773571D01*
X107802857Y-57297380D01*
X107469523Y-56630714D02*
X107088571Y-56630714D01*
X107326666Y-56297380D02*
X107326666Y-57154523D01*
X107279047Y-57249761D01*
X107183809Y-57297380D01*
X107088571Y-57297380D01*
X106326666Y-57297380D02*
X106326666Y-56773571D01*
X106374285Y-56678333D01*
X106469523Y-56630714D01*
X106660000Y-56630714D01*
X106755238Y-56678333D01*
X106326666Y-57249761D02*
X106421904Y-57297380D01*
X106660000Y-57297380D01*
X106755238Y-57249761D01*
X106802857Y-57154523D01*
X106802857Y-57059285D01*
X106755238Y-56964047D01*
X106660000Y-56916428D01*
X106421904Y-56916428D01*
X106326666Y-56868809D01*
X105850476Y-57297380D02*
X105850476Y-56630714D01*
X105850476Y-56821190D02*
X105802857Y-56725952D01*
X105755238Y-56678333D01*
X105660000Y-56630714D01*
X105564761Y-56630714D01*
X104850476Y-57249761D02*
X104945714Y-57297380D01*
X105136190Y-57297380D01*
X105231428Y-57249761D01*
X105279047Y-57154523D01*
X105279047Y-56773571D01*
X105231428Y-56678333D01*
X105136190Y-56630714D01*
X104945714Y-56630714D01*
X104850476Y-56678333D01*
X104802857Y-56773571D01*
X104802857Y-56868809D01*
X105279047Y-56964047D01*
X104421904Y-57249761D02*
X104326666Y-57297380D01*
X104136190Y-57297380D01*
X104040952Y-57249761D01*
X103993333Y-57154523D01*
X103993333Y-57106904D01*
X104040952Y-57011666D01*
X104136190Y-56964047D01*
X104279047Y-56964047D01*
X104374285Y-56916428D01*
X104421904Y-56821190D01*
X104421904Y-56773571D01*
X104374285Y-56678333D01*
X104279047Y-56630714D01*
X104136190Y-56630714D01*
X104040952Y-56678333D01*
X102612380Y-56297380D02*
X102517142Y-56297380D01*
X102421904Y-56345000D01*
X102374285Y-56392619D01*
X102326666Y-56487857D01*
X102279047Y-56678333D01*
X102279047Y-56916428D01*
X102326666Y-57106904D01*
X102374285Y-57202142D01*
X102421904Y-57249761D01*
X102517142Y-57297380D01*
X102612380Y-57297380D01*
X102707619Y-57249761D01*
X102755238Y-57202142D01*
X102802857Y-57106904D01*
X102850476Y-56916428D01*
X102850476Y-56678333D01*
X102802857Y-56487857D01*
X102755238Y-56392619D01*
X102707619Y-56345000D01*
X102612380Y-56297380D01*
X101421904Y-56630714D02*
X101421904Y-57297380D01*
X101660000Y-56249761D02*
X101898095Y-56964047D01*
X101279047Y-56964047D01*
X100183809Y-56249761D02*
X101040952Y-57535476D01*
X99898095Y-56392619D02*
X99850476Y-56345000D01*
X99755238Y-56297380D01*
X99517142Y-56297380D01*
X99421904Y-56345000D01*
X99374285Y-56392619D01*
X99326666Y-56487857D01*
X99326666Y-56583095D01*
X99374285Y-56725952D01*
X99945714Y-57297380D01*
X99326666Y-57297380D01*
X98707619Y-56297380D02*
X98612380Y-56297380D01*
X98517142Y-56345000D01*
X98469523Y-56392619D01*
X98421904Y-56487857D01*
X98374285Y-56678333D01*
X98374285Y-56916428D01*
X98421904Y-57106904D01*
X98469523Y-57202142D01*
X98517142Y-57249761D01*
X98612380Y-57297380D01*
X98707619Y-57297380D01*
X98802857Y-57249761D01*
X98850476Y-57202142D01*
X98898095Y-57106904D01*
X98945714Y-56916428D01*
X98945714Y-56678333D01*
X98898095Y-56487857D01*
X98850476Y-56392619D01*
X98802857Y-56345000D01*
X98707619Y-56297380D01*
X97993333Y-56392619D02*
X97945714Y-56345000D01*
X97850476Y-56297380D01*
X97612380Y-56297380D01*
X97517142Y-56345000D01*
X97469523Y-56392619D01*
X97421904Y-56487857D01*
X97421904Y-56583095D01*
X97469523Y-56725952D01*
X98040952Y-57297380D01*
X97421904Y-57297380D01*
X97040952Y-56392619D02*
X96993333Y-56345000D01*
X96898095Y-56297380D01*
X96660000Y-56297380D01*
X96564761Y-56345000D01*
X96517142Y-56392619D01*
X96469523Y-56487857D01*
X96469523Y-56583095D01*
X96517142Y-56725952D01*
X97088571Y-57297380D01*
X96469523Y-57297380D01*
X109183809Y-59047380D02*
X109183809Y-58047380D01*
X108707619Y-59047380D02*
X108707619Y-58380714D01*
X108707619Y-58571190D02*
X108660000Y-58475952D01*
X108612380Y-58428333D01*
X108517142Y-58380714D01*
X108421904Y-58380714D01*
X107660000Y-59047380D02*
X107660000Y-58523571D01*
X107707619Y-58428333D01*
X107802857Y-58380714D01*
X107993333Y-58380714D01*
X108088571Y-58428333D01*
X107660000Y-58999761D02*
X107755238Y-59047380D01*
X107993333Y-59047380D01*
X108088571Y-58999761D01*
X108136190Y-58904523D01*
X108136190Y-58809285D01*
X108088571Y-58714047D01*
X107993333Y-58666428D01*
X107755238Y-58666428D01*
X107660000Y-58618809D01*
X107183809Y-58380714D02*
X107183809Y-59380714D01*
X107183809Y-58428333D02*
X107088571Y-58380714D01*
X106898095Y-58380714D01*
X106802857Y-58428333D01*
X106755238Y-58475952D01*
X106707619Y-58571190D01*
X106707619Y-58856904D01*
X106755238Y-58952142D01*
X106802857Y-58999761D01*
X106898095Y-59047380D01*
X107088571Y-59047380D01*
X107183809Y-58999761D01*
X105850476Y-58380714D02*
X105850476Y-59047380D01*
X106279047Y-58380714D02*
X106279047Y-58904523D01*
X106231428Y-58999761D01*
X106136190Y-59047380D01*
X105993333Y-59047380D01*
X105898095Y-58999761D01*
X105850476Y-58952142D01*
X105374285Y-59047380D02*
X105374285Y-58380714D01*
X105374285Y-58571190D02*
X105326666Y-58475952D01*
X105279047Y-58428333D01*
X105183809Y-58380714D01*
X105088571Y-58380714D01*
X104326666Y-58380714D02*
X104326666Y-59047380D01*
X104755238Y-58380714D02*
X104755238Y-58904523D01*
X104707619Y-58999761D01*
X104612380Y-59047380D01*
X104469523Y-59047380D01*
X104374285Y-58999761D01*
X104326666Y-58952142D01*
X103850476Y-58666428D02*
X103088571Y-58666428D01*
X102612380Y-59047380D02*
X102612380Y-58047380D01*
X102136190Y-59047380D02*
X102136190Y-58047380D01*
X114064761Y-60511666D02*
X113588571Y-60511666D01*
X114160000Y-60797380D02*
X113826666Y-59797380D01*
X113493333Y-60797380D01*
X113255238Y-60130714D02*
X113017142Y-60797380D01*
X112779047Y-60130714D01*
X112398095Y-60797380D02*
X112398095Y-60130714D01*
X112398095Y-59797380D02*
X112445714Y-59845000D01*
X112398095Y-59892619D01*
X112350476Y-59845000D01*
X112398095Y-59797380D01*
X112398095Y-59892619D01*
X111779047Y-60797380D02*
X111874285Y-60749761D01*
X111921904Y-60702142D01*
X111969523Y-60606904D01*
X111969523Y-60321190D01*
X111921904Y-60225952D01*
X111874285Y-60178333D01*
X111779047Y-60130714D01*
X111636190Y-60130714D01*
X111540952Y-60178333D01*
X111493333Y-60225952D01*
X111445714Y-60321190D01*
X111445714Y-60606904D01*
X111493333Y-60702142D01*
X111540952Y-60749761D01*
X111636190Y-60797380D01*
X111779047Y-60797380D01*
X111874285Y-59892619D02*
X111683809Y-59749761D01*
X111493333Y-59892619D01*
X111017142Y-60130714D02*
X111017142Y-60797380D01*
X111017142Y-60225952D02*
X110969523Y-60178333D01*
X110874285Y-60130714D01*
X110731428Y-60130714D01*
X110636190Y-60178333D01*
X110588571Y-60273571D01*
X110588571Y-60797380D01*
X110112380Y-60797380D02*
X110112380Y-60130714D01*
X110112380Y-59797380D02*
X110160000Y-59845000D01*
X110112380Y-59892619D01*
X110064761Y-59845000D01*
X110112380Y-59797380D01*
X110112380Y-59892619D01*
X109207619Y-60749761D02*
X109302857Y-60797380D01*
X109493333Y-60797380D01*
X109588571Y-60749761D01*
X109636190Y-60702142D01*
X109683809Y-60606904D01*
X109683809Y-60321190D01*
X109636190Y-60225952D01*
X109588571Y-60178333D01*
X109493333Y-60130714D01*
X109302857Y-60130714D01*
X109207619Y-60178333D01*
X108350476Y-60797380D02*
X108350476Y-60273571D01*
X108398095Y-60178333D01*
X108493333Y-60130714D01*
X108683809Y-60130714D01*
X108779047Y-60178333D01*
X108350476Y-60749761D02*
X108445714Y-60797380D01*
X108683809Y-60797380D01*
X108779047Y-60749761D01*
X108826666Y-60654523D01*
X108826666Y-60559285D01*
X108779047Y-60464047D01*
X108683809Y-60416428D01*
X108445714Y-60416428D01*
X108350476Y-60368809D01*
X107160000Y-60511666D02*
X106683809Y-60511666D01*
X107255238Y-60797380D02*
X106921904Y-59797380D01*
X106588571Y-60797380D01*
X106255238Y-60130714D02*
X106255238Y-60797380D01*
X106255238Y-60225952D02*
X106207619Y-60178333D01*
X106112380Y-60130714D01*
X105969523Y-60130714D01*
X105874285Y-60178333D01*
X105826666Y-60273571D01*
X105826666Y-60797380D01*
X105350476Y-60797380D02*
X105350476Y-59797380D01*
X104921904Y-60797380D02*
X104921904Y-60273571D01*
X104969523Y-60178333D01*
X105064761Y-60130714D01*
X105207619Y-60130714D01*
X105302857Y-60178333D01*
X105350476Y-60225952D01*
X104017142Y-60797380D02*
X104017142Y-60273571D01*
X104064761Y-60178333D01*
X104160000Y-60130714D01*
X104350476Y-60130714D01*
X104445714Y-60178333D01*
X104017142Y-60749761D02*
X104112380Y-60797380D01*
X104350476Y-60797380D01*
X104445714Y-60749761D01*
X104493333Y-60654523D01*
X104493333Y-60559285D01*
X104445714Y-60464047D01*
X104350476Y-60416428D01*
X104112380Y-60416428D01*
X104017142Y-60368809D01*
X103540952Y-60130714D02*
X103540952Y-60797380D01*
X103540952Y-60225952D02*
X103493333Y-60178333D01*
X103398095Y-60130714D01*
X103255238Y-60130714D01*
X103160000Y-60178333D01*
X103112380Y-60273571D01*
X103112380Y-60797380D01*
X102207619Y-60130714D02*
X102207619Y-60940238D01*
X102255238Y-61035476D01*
X102302857Y-61083095D01*
X102398095Y-61130714D01*
X102540952Y-61130714D01*
X102636190Y-61083095D01*
X102207619Y-60749761D02*
X102302857Y-60797380D01*
X102493333Y-60797380D01*
X102588571Y-60749761D01*
X102636190Y-60702142D01*
X102683809Y-60606904D01*
X102683809Y-60321190D01*
X102636190Y-60225952D01*
X102588571Y-60178333D01*
X102493333Y-60130714D01*
X102302857Y-60130714D01*
X102207619Y-60178333D01*
X101302857Y-60797380D02*
X101302857Y-60273571D01*
X101350476Y-60178333D01*
X101445714Y-60130714D01*
X101636190Y-60130714D01*
X101731428Y-60178333D01*
X101302857Y-60749761D02*
X101398095Y-60797380D01*
X101636190Y-60797380D01*
X101731428Y-60749761D01*
X101779047Y-60654523D01*
X101779047Y-60559285D01*
X101731428Y-60464047D01*
X101636190Y-60416428D01*
X101398095Y-60416428D01*
X101302857Y-60368809D01*
X101445714Y-59749761D02*
X101588571Y-59892619D01*
X100207619Y-59797380D02*
X99874285Y-60797380D01*
X99540952Y-59797380D01*
X99255238Y-59892619D02*
X99207619Y-59845000D01*
X99112380Y-59797380D01*
X98874285Y-59797380D01*
X98779047Y-59845000D01*
X98731428Y-59892619D01*
X98683809Y-59987857D01*
X98683809Y-60083095D01*
X98731428Y-60225952D01*
X99302857Y-60797380D01*
X98683809Y-60797380D01*
X98255238Y-60702142D02*
X98207619Y-60749761D01*
X98255238Y-60797380D01*
X98302857Y-60749761D01*
X98255238Y-60702142D01*
X98255238Y-60797380D01*
X97588571Y-59797380D02*
X97493333Y-59797380D01*
X97398095Y-59845000D01*
X97350476Y-59892619D01*
X97302857Y-59987857D01*
X97255238Y-60178333D01*
X97255238Y-60416428D01*
X97302857Y-60606904D01*
X97350476Y-60702142D01*
X97398095Y-60749761D01*
X97493333Y-60797380D01*
X97588571Y-60797380D01*
X97683809Y-60749761D01*
X97731428Y-60702142D01*
X97779047Y-60606904D01*
X97826666Y-60416428D01*
X97826666Y-60178333D01*
X97779047Y-59987857D01*
X97731428Y-59892619D01*
X97683809Y-59845000D01*
X97588571Y-59797380D01*
X107588571Y-61595000D02*
X107683809Y-61547380D01*
X107826666Y-61547380D01*
X107969523Y-61595000D01*
X108064761Y-61690238D01*
X108112380Y-61785476D01*
X108160000Y-61975952D01*
X108160000Y-62118809D01*
X108112380Y-62309285D01*
X108064761Y-62404523D01*
X107969523Y-62499761D01*
X107826666Y-62547380D01*
X107731428Y-62547380D01*
X107588571Y-62499761D01*
X107540952Y-62452142D01*
X107540952Y-62118809D01*
X107731428Y-62118809D01*
X107112380Y-62452142D02*
X107064761Y-62499761D01*
X107112380Y-62547380D01*
X107160000Y-62499761D01*
X107112380Y-62452142D01*
X107112380Y-62547380D01*
X105302857Y-62547380D02*
X105636190Y-62071190D01*
X105874285Y-62547380D02*
X105874285Y-61547380D01*
X105493333Y-61547380D01*
X105398095Y-61595000D01*
X105350476Y-61642619D01*
X105302857Y-61737857D01*
X105302857Y-61880714D01*
X105350476Y-61975952D01*
X105398095Y-62023571D01*
X105493333Y-62071190D01*
X105874285Y-62071190D01*
X104493333Y-62499761D02*
X104588571Y-62547380D01*
X104779047Y-62547380D01*
X104874285Y-62499761D01*
X104921904Y-62404523D01*
X104921904Y-62023571D01*
X104874285Y-61928333D01*
X104779047Y-61880714D01*
X104588571Y-61880714D01*
X104493333Y-61928333D01*
X104445714Y-62023571D01*
X104445714Y-62118809D01*
X104921904Y-62214047D01*
X104017142Y-62547380D02*
X104017142Y-61880714D01*
X104017142Y-61547380D02*
X104064761Y-61595000D01*
X104017142Y-61642619D01*
X103969523Y-61595000D01*
X104017142Y-61547380D01*
X104017142Y-61642619D01*
X103588571Y-62499761D02*
X103493333Y-62547380D01*
X103302857Y-62547380D01*
X103207619Y-62499761D01*
X103160000Y-62404523D01*
X103160000Y-62356904D01*
X103207619Y-62261666D01*
X103302857Y-62214047D01*
X103445714Y-62214047D01*
X103540952Y-62166428D01*
X103588571Y-62071190D01*
X103588571Y-62023571D01*
X103540952Y-61928333D01*
X103445714Y-61880714D01*
X103302857Y-61880714D01*
X103207619Y-61928333D01*
D11*
%TO.C,G\u002A\u002A\u002A*%
G36*
X122020324Y-139589784D02*
G01*
X122092467Y-139698487D01*
X122213877Y-139753911D01*
X122302543Y-139761935D01*
X122412550Y-139749323D01*
X122487219Y-139701722D01*
X122519250Y-139663079D01*
X122580597Y-139529704D01*
X122592402Y-139382152D01*
X122555640Y-139246234D01*
X122500667Y-139171020D01*
X122377059Y-139101295D01*
X122234530Y-139092153D01*
X122125352Y-139129738D01*
X122051799Y-139182209D01*
X122012915Y-139249309D01*
X121998282Y-139355137D01*
X121996812Y-139427109D01*
X122020324Y-139589784D01*
G37*
X122020324Y-139589784D02*
X122092467Y-139698487D01*
X122213877Y-139753911D01*
X122302543Y-139761935D01*
X122412550Y-139749323D01*
X122487219Y-139701722D01*
X122519250Y-139663079D01*
X122580597Y-139529704D01*
X122592402Y-139382152D01*
X122555640Y-139246234D01*
X122500667Y-139171020D01*
X122377059Y-139101295D01*
X122234530Y-139092153D01*
X122125352Y-139129738D01*
X122051799Y-139182209D01*
X122012915Y-139249309D01*
X121998282Y-139355137D01*
X121996812Y-139427109D01*
X122020324Y-139589784D01*
G36*
X122149825Y-138308792D02*
G01*
X122168197Y-138478426D01*
X122193087Y-138648860D01*
X122215968Y-138768394D01*
X122244827Y-138878903D01*
X122276542Y-138935923D01*
X122328297Y-138959416D01*
X122386697Y-138966696D01*
X122491522Y-138994513D01*
X122572312Y-139046902D01*
X122576058Y-139051112D01*
X122649752Y-139107481D01*
X122745541Y-139118293D01*
X122875737Y-139083064D01*
X122984962Y-139035098D01*
X123148336Y-138957558D01*
X123317143Y-138879286D01*
X123478338Y-138806112D01*
X123618871Y-138743869D01*
X123725697Y-138698388D01*
X123785767Y-138675501D01*
X123793086Y-138673900D01*
X123834457Y-138659170D01*
X123922220Y-138620078D01*
X124039395Y-138564274D01*
X124071921Y-138548298D01*
X124213300Y-138480254D01*
X124348515Y-138418239D01*
X124450326Y-138374717D01*
X124457448Y-138371928D01*
X124542895Y-138331689D01*
X124580134Y-138281450D01*
X124588780Y-138192355D01*
X124588828Y-138178623D01*
X124588828Y-138036086D01*
X122126749Y-138036086D01*
X122149825Y-138308792D01*
G37*
X122149825Y-138308792D02*
X122168197Y-138478426D01*
X122193087Y-138648860D01*
X122215968Y-138768394D01*
X122244827Y-138878903D01*
X122276542Y-138935923D01*
X122328297Y-138959416D01*
X122386697Y-138966696D01*
X122491522Y-138994513D01*
X122572312Y-139046902D01*
X122576058Y-139051112D01*
X122649752Y-139107481D01*
X122745541Y-139118293D01*
X122875737Y-139083064D01*
X122984962Y-139035098D01*
X123148336Y-138957558D01*
X123317143Y-138879286D01*
X123478338Y-138806112D01*
X123618871Y-138743869D01*
X123725697Y-138698388D01*
X123785767Y-138675501D01*
X123793086Y-138673900D01*
X123834457Y-138659170D01*
X123922220Y-138620078D01*
X124039395Y-138564274D01*
X124071921Y-138548298D01*
X124213300Y-138480254D01*
X124348515Y-138418239D01*
X124450326Y-138374717D01*
X124457448Y-138371928D01*
X124542895Y-138331689D01*
X124580134Y-138281450D01*
X124588780Y-138192355D01*
X124588828Y-138178623D01*
X124588828Y-138036086D01*
X122126749Y-138036086D01*
X122149825Y-138308792D01*
G36*
X124571310Y-137829734D02*
G01*
X124580316Y-137698420D01*
X124589323Y-137567105D01*
X124177420Y-137383417D01*
X124005757Y-137306356D01*
X123844158Y-137232907D01*
X123710952Y-137171457D01*
X123625379Y-137130841D01*
X123498057Y-137073919D01*
X123358155Y-137019194D01*
X123327586Y-137008478D01*
X123229652Y-136970840D01*
X123088954Y-136911177D01*
X122926488Y-136838583D01*
X122804600Y-136781890D01*
X122636265Y-136704812D01*
X122521174Y-136659274D01*
X122450308Y-136642405D01*
X122414644Y-136651333D01*
X122410623Y-136656479D01*
X122357531Y-136772069D01*
X122300346Y-136940395D01*
X122244447Y-137139843D01*
X122195212Y-137348801D01*
X122158018Y-137545656D01*
X122138243Y-137708794D01*
X122136414Y-137758484D01*
X122136414Y-137849466D01*
X124571310Y-137829734D01*
G37*
X124571310Y-137829734D02*
X124580316Y-137698420D01*
X124589323Y-137567105D01*
X124177420Y-137383417D01*
X124005757Y-137306356D01*
X123844158Y-137232907D01*
X123710952Y-137171457D01*
X123625379Y-137130841D01*
X123498057Y-137073919D01*
X123358155Y-137019194D01*
X123327586Y-137008478D01*
X123229652Y-136970840D01*
X123088954Y-136911177D01*
X122926488Y-136838583D01*
X122804600Y-136781890D01*
X122636265Y-136704812D01*
X122521174Y-136659274D01*
X122450308Y-136642405D01*
X122414644Y-136651333D01*
X122410623Y-136656479D01*
X122357531Y-136772069D01*
X122300346Y-136940395D01*
X122244447Y-137139843D01*
X122195212Y-137348801D01*
X122158018Y-137545656D01*
X122138243Y-137708794D01*
X122136414Y-137758484D01*
X122136414Y-137849466D01*
X124571310Y-137829734D01*
G36*
X122659127Y-139788736D02*
G01*
X122721474Y-139899052D01*
X122821040Y-140036911D01*
X122902446Y-140144550D01*
X122969437Y-140229764D01*
X123028525Y-140289600D01*
X123086224Y-140321106D01*
X123149046Y-140321328D01*
X123223505Y-140287312D01*
X123316114Y-140216106D01*
X123433386Y-140104757D01*
X123581834Y-139950310D01*
X123767971Y-139749814D01*
X123993861Y-139505120D01*
X124187714Y-139295302D01*
X124364788Y-139102844D01*
X124519289Y-138934108D01*
X124645422Y-138795457D01*
X124737389Y-138693251D01*
X124789396Y-138633854D01*
X124799035Y-138621268D01*
X124779450Y-138585334D01*
X124733664Y-138520723D01*
X124668293Y-138434269D01*
X124409595Y-138550318D01*
X124267836Y-138612974D01*
X124134472Y-138670337D01*
X124036041Y-138711009D01*
X124028276Y-138714057D01*
X123940514Y-138751243D01*
X123801441Y-138813860D01*
X123623468Y-138896136D01*
X123419005Y-138992298D01*
X123200465Y-139096574D01*
X123057991Y-139165363D01*
X122963005Y-139208245D01*
X122893917Y-139233670D01*
X122878350Y-139236677D01*
X122820489Y-139271357D01*
X122762636Y-139365314D01*
X122713910Y-139503427D01*
X122711187Y-139513921D01*
X122681063Y-139624696D01*
X122654309Y-139710457D01*
X122648692Y-139725493D01*
X122659127Y-139788736D01*
G37*
X122659127Y-139788736D02*
X122721474Y-139899052D01*
X122821040Y-140036911D01*
X122902446Y-140144550D01*
X122969437Y-140229764D01*
X123028525Y-140289600D01*
X123086224Y-140321106D01*
X123149046Y-140321328D01*
X123223505Y-140287312D01*
X123316114Y-140216106D01*
X123433386Y-140104757D01*
X123581834Y-139950310D01*
X123767971Y-139749814D01*
X123993861Y-139505120D01*
X124187714Y-139295302D01*
X124364788Y-139102844D01*
X124519289Y-138934108D01*
X124645422Y-138795457D01*
X124737389Y-138693251D01*
X124789396Y-138633854D01*
X124799035Y-138621268D01*
X124779450Y-138585334D01*
X124733664Y-138520723D01*
X124668293Y-138434269D01*
X124409595Y-138550318D01*
X124267836Y-138612974D01*
X124134472Y-138670337D01*
X124036041Y-138711009D01*
X124028276Y-138714057D01*
X123940514Y-138751243D01*
X123801441Y-138813860D01*
X123623468Y-138896136D01*
X123419005Y-138992298D01*
X123200465Y-139096574D01*
X123057991Y-139165363D01*
X122963005Y-139208245D01*
X122893917Y-139233670D01*
X122878350Y-139236677D01*
X122820489Y-139271357D01*
X122762636Y-139365314D01*
X122713910Y-139503427D01*
X122711187Y-139513921D01*
X122681063Y-139624696D01*
X122654309Y-139710457D01*
X122648692Y-139725493D01*
X122659127Y-139788736D01*
G36*
X122535314Y-136443928D02*
G01*
X122577538Y-136491182D01*
X122662556Y-136548200D01*
X122722828Y-136579406D01*
X122854649Y-136641036D01*
X122987919Y-136703637D01*
X123029793Y-136723391D01*
X123129943Y-136769193D01*
X123268651Y-136830689D01*
X123419273Y-136896096D01*
X123450207Y-136909346D01*
X123590987Y-136970224D01*
X123773852Y-137050368D01*
X123976330Y-137139878D01*
X124175947Y-137228855D01*
X124198647Y-137239030D01*
X124666812Y-137448995D01*
X124732144Y-137357976D01*
X124779180Y-137274931D01*
X124797197Y-137210680D01*
X124773168Y-137171216D01*
X124705200Y-137085896D01*
X124599256Y-136961536D01*
X124461303Y-136804953D01*
X124297305Y-136622964D01*
X124113226Y-136422386D01*
X124013530Y-136315123D01*
X123820763Y-136110235D01*
X123642894Y-135924306D01*
X123486131Y-135763578D01*
X123356680Y-135634297D01*
X123260749Y-135542706D01*
X123204544Y-135495050D01*
X123193046Y-135489716D01*
X123146000Y-135527484D01*
X123067846Y-135610601D01*
X122970064Y-135724828D01*
X122864130Y-135855925D01*
X122761522Y-135989654D01*
X122673718Y-136111774D01*
X122612195Y-136208047D01*
X122608078Y-136215433D01*
X122558682Y-136322720D01*
X122534258Y-136410917D01*
X122535314Y-136443928D01*
G37*
X122535314Y-136443928D02*
X122577538Y-136491182D01*
X122662556Y-136548200D01*
X122722828Y-136579406D01*
X122854649Y-136641036D01*
X122987919Y-136703637D01*
X123029793Y-136723391D01*
X123129943Y-136769193D01*
X123268651Y-136830689D01*
X123419273Y-136896096D01*
X123450207Y-136909346D01*
X123590987Y-136970224D01*
X123773852Y-137050368D01*
X123976330Y-137139878D01*
X124175947Y-137228855D01*
X124198647Y-137239030D01*
X124666812Y-137448995D01*
X124732144Y-137357976D01*
X124779180Y-137274931D01*
X124797197Y-137210680D01*
X124773168Y-137171216D01*
X124705200Y-137085896D01*
X124599256Y-136961536D01*
X124461303Y-136804953D01*
X124297305Y-136622964D01*
X124113226Y-136422386D01*
X124013530Y-136315123D01*
X123820763Y-136110235D01*
X123642894Y-135924306D01*
X123486131Y-135763578D01*
X123356680Y-135634297D01*
X123260749Y-135542706D01*
X123204544Y-135495050D01*
X123193046Y-135489716D01*
X123146000Y-135527484D01*
X123067846Y-135610601D01*
X122970064Y-135724828D01*
X122864130Y-135855925D01*
X122761522Y-135989654D01*
X122673718Y-136111774D01*
X122612195Y-136208047D01*
X122608078Y-136215433D01*
X122558682Y-136322720D01*
X122534258Y-136410917D01*
X122535314Y-136443928D01*
G36*
X123393215Y-140531176D02*
G01*
X123465600Y-140593434D01*
X123565545Y-140668268D01*
X123676266Y-140743630D01*
X123780978Y-140807470D01*
X123853104Y-140843834D01*
X123935842Y-140878910D01*
X124051233Y-140928357D01*
X124122357Y-140959024D01*
X124224369Y-141002042D01*
X124296824Y-141030569D01*
X124319276Y-141037563D01*
X124339237Y-141005083D01*
X124379310Y-140917158D01*
X124433701Y-140788066D01*
X124496614Y-140632082D01*
X124562255Y-140463483D01*
X124624830Y-140296544D01*
X124661920Y-140193398D01*
X124699716Y-140087720D01*
X124738180Y-139984938D01*
X124783100Y-139870595D01*
X124840259Y-139730235D01*
X124915444Y-139549402D01*
X125005591Y-139334663D01*
X125079010Y-139139125D01*
X125110776Y-138995484D01*
X125101205Y-138895550D01*
X125050615Y-138831135D01*
X125025681Y-138816621D01*
X124999159Y-138806669D01*
X124970441Y-138806896D01*
X124933877Y-138822456D01*
X124883818Y-138858503D01*
X124814615Y-138920190D01*
X124720619Y-139012670D01*
X124596180Y-139141098D01*
X124435649Y-139310627D01*
X124233377Y-139526411D01*
X124150856Y-139614693D01*
X123958694Y-139821498D01*
X123783560Y-140012201D01*
X123631385Y-140180170D01*
X123508100Y-140318771D01*
X123419633Y-140421370D01*
X123371916Y-140481335D01*
X123365175Y-140493545D01*
X123393215Y-140531176D01*
G37*
X123393215Y-140531176D02*
X123465600Y-140593434D01*
X123565545Y-140668268D01*
X123676266Y-140743630D01*
X123780978Y-140807470D01*
X123853104Y-140843834D01*
X123935842Y-140878910D01*
X124051233Y-140928357D01*
X124122357Y-140959024D01*
X124224369Y-141002042D01*
X124296824Y-141030569D01*
X124319276Y-141037563D01*
X124339237Y-141005083D01*
X124379310Y-140917158D01*
X124433701Y-140788066D01*
X124496614Y-140632082D01*
X124562255Y-140463483D01*
X124624830Y-140296544D01*
X124661920Y-140193398D01*
X124699716Y-140087720D01*
X124738180Y-139984938D01*
X124783100Y-139870595D01*
X124840259Y-139730235D01*
X124915444Y-139549402D01*
X125005591Y-139334663D01*
X125079010Y-139139125D01*
X125110776Y-138995484D01*
X125101205Y-138895550D01*
X125050615Y-138831135D01*
X125025681Y-138816621D01*
X124999159Y-138806669D01*
X124970441Y-138806896D01*
X124933877Y-138822456D01*
X124883818Y-138858503D01*
X124814615Y-138920190D01*
X124720619Y-139012670D01*
X124596180Y-139141098D01*
X124435649Y-139310627D01*
X124233377Y-139526411D01*
X124150856Y-139614693D01*
X123958694Y-139821498D01*
X123783560Y-140012201D01*
X123631385Y-140180170D01*
X123508100Y-140318771D01*
X123419633Y-140421370D01*
X123371916Y-140481335D01*
X123365175Y-140493545D01*
X123393215Y-140531176D01*
G36*
X123351069Y-135388051D02*
G01*
X123416292Y-135464387D01*
X123515414Y-135576533D01*
X123640598Y-135715885D01*
X123784003Y-135873834D01*
X123937789Y-136041774D01*
X124094119Y-136211099D01*
X124245152Y-136373203D01*
X124383049Y-136519478D01*
X124470449Y-136610836D01*
X124567920Y-136718402D01*
X124658513Y-136828853D01*
X124690110Y-136871568D01*
X124803635Y-136991945D01*
X124923900Y-137039615D01*
X125026759Y-137023087D01*
X125099301Y-136963802D01*
X125113276Y-136902081D01*
X125098968Y-136839521D01*
X125060191Y-136722813D01*
X125002006Y-136565856D01*
X124929474Y-136382549D01*
X124884120Y-136272718D01*
X124801597Y-136073694D01*
X124725789Y-135886830D01*
X124663093Y-135728189D01*
X124619903Y-135613834D01*
X124607732Y-135578627D01*
X124570968Y-135472216D01*
X124516867Y-135324856D01*
X124455758Y-135164541D01*
X124441650Y-135128405D01*
X124372482Y-134965100D01*
X124309495Y-134864322D01*
X124238478Y-134821148D01*
X124145220Y-134830652D01*
X124015511Y-134887911D01*
X123911515Y-134944692D01*
X123784880Y-135019915D01*
X123651548Y-135105592D01*
X123525358Y-135191973D01*
X123420146Y-135269308D01*
X123349749Y-135327849D01*
X123327586Y-135356133D01*
X123351069Y-135388051D01*
G37*
X123351069Y-135388051D02*
X123416292Y-135464387D01*
X123515414Y-135576533D01*
X123640598Y-135715885D01*
X123784003Y-135873834D01*
X123937789Y-136041774D01*
X124094119Y-136211099D01*
X124245152Y-136373203D01*
X124383049Y-136519478D01*
X124470449Y-136610836D01*
X124567920Y-136718402D01*
X124658513Y-136828853D01*
X124690110Y-136871568D01*
X124803635Y-136991945D01*
X124923900Y-137039615D01*
X125026759Y-137023087D01*
X125099301Y-136963802D01*
X125113276Y-136902081D01*
X125098968Y-136839521D01*
X125060191Y-136722813D01*
X125002006Y-136565856D01*
X124929474Y-136382549D01*
X124884120Y-136272718D01*
X124801597Y-136073694D01*
X124725789Y-135886830D01*
X124663093Y-135728189D01*
X124619903Y-135613834D01*
X124607732Y-135578627D01*
X124570968Y-135472216D01*
X124516867Y-135324856D01*
X124455758Y-135164541D01*
X124441650Y-135128405D01*
X124372482Y-134965100D01*
X124309495Y-134864322D01*
X124238478Y-134821148D01*
X124145220Y-134830652D01*
X124015511Y-134887911D01*
X123911515Y-134944692D01*
X123784880Y-135019915D01*
X123651548Y-135105592D01*
X123525358Y-135191973D01*
X123420146Y-135269308D01*
X123349749Y-135327849D01*
X123327586Y-135356133D01*
X123351069Y-135388051D01*
G36*
X124535462Y-141116696D02*
G01*
X124570655Y-141158810D01*
X124639878Y-141193342D01*
X124713898Y-141222915D01*
X124907859Y-141297813D01*
X125050918Y-141344557D01*
X125156293Y-141365256D01*
X125237199Y-141362022D01*
X125306854Y-141336962D01*
X125333645Y-141321837D01*
X125391251Y-141286158D01*
X125436655Y-141251419D01*
X125471308Y-141208776D01*
X125496663Y-141149385D01*
X125514171Y-141064404D01*
X125525282Y-140944988D01*
X125531449Y-140782294D01*
X125534123Y-140567477D01*
X125534755Y-140291695D01*
X125534759Y-140096445D01*
X125534366Y-139786659D01*
X125532903Y-139543749D01*
X125529945Y-139359554D01*
X125525066Y-139225916D01*
X125517841Y-139134676D01*
X125507843Y-139077676D01*
X125494646Y-139046755D01*
X125479342Y-139034339D01*
X125368942Y-139007246D01*
X125286774Y-139037045D01*
X125219069Y-139131197D01*
X125192441Y-139189779D01*
X125138677Y-139329630D01*
X125090642Y-139471472D01*
X125076831Y-139518065D01*
X125038151Y-139639910D01*
X124996347Y-139747097D01*
X124989420Y-139761935D01*
X124926661Y-139898253D01*
X124853199Y-140069804D01*
X124776390Y-140257965D01*
X124703593Y-140444111D01*
X124642167Y-140609619D01*
X124599469Y-140735866D01*
X124586905Y-140780678D01*
X124548301Y-140944049D01*
X124529582Y-141050582D01*
X124535462Y-141116696D01*
G37*
X124535462Y-141116696D02*
X124570655Y-141158810D01*
X124639878Y-141193342D01*
X124713898Y-141222915D01*
X124907859Y-141297813D01*
X125050918Y-141344557D01*
X125156293Y-141365256D01*
X125237199Y-141362022D01*
X125306854Y-141336962D01*
X125333645Y-141321837D01*
X125391251Y-141286158D01*
X125436655Y-141251419D01*
X125471308Y-141208776D01*
X125496663Y-141149385D01*
X125514171Y-141064404D01*
X125525282Y-140944988D01*
X125531449Y-140782294D01*
X125534123Y-140567477D01*
X125534755Y-140291695D01*
X125534759Y-140096445D01*
X125534366Y-139786659D01*
X125532903Y-139543749D01*
X125529945Y-139359554D01*
X125525066Y-139225916D01*
X125517841Y-139134676D01*
X125507843Y-139077676D01*
X125494646Y-139046755D01*
X125479342Y-139034339D01*
X125368942Y-139007246D01*
X125286774Y-139037045D01*
X125219069Y-139131197D01*
X125192441Y-139189779D01*
X125138677Y-139329630D01*
X125090642Y-139471472D01*
X125076831Y-139518065D01*
X125038151Y-139639910D01*
X124996347Y-139747097D01*
X124989420Y-139761935D01*
X124926661Y-139898253D01*
X124853199Y-140069804D01*
X124776390Y-140257965D01*
X124703593Y-140444111D01*
X124642167Y-140609619D01*
X124599469Y-140735866D01*
X124586905Y-140780678D01*
X124548301Y-140944049D01*
X124529582Y-141050582D01*
X124535462Y-141116696D01*
G36*
X124514016Y-134908367D02*
G01*
X124550074Y-135034227D01*
X124617786Y-135214095D01*
X124681629Y-135376967D01*
X124726258Y-135504749D01*
X124756171Y-135616131D01*
X124764000Y-135671698D01*
X124785959Y-135755985D01*
X124839640Y-135851261D01*
X124847762Y-135861990D01*
X124901427Y-135950203D01*
X124964055Y-136082327D01*
X125022761Y-136230975D01*
X125026842Y-136242590D01*
X125106212Y-136468970D01*
X125165596Y-136633773D01*
X125208475Y-136746124D01*
X125238328Y-136815152D01*
X125258312Y-136849576D01*
X125306821Y-136864954D01*
X125392567Y-136860321D01*
X125409521Y-136857256D01*
X125534759Y-136832095D01*
X125534759Y-135819619D01*
X125534450Y-135516330D01*
X125533192Y-135279599D01*
X125530484Y-135100950D01*
X125525826Y-134971905D01*
X125518718Y-134883987D01*
X125508660Y-134828720D01*
X125495152Y-134797626D01*
X125477694Y-134782228D01*
X125473448Y-134780182D01*
X125416475Y-134770010D01*
X125304884Y-134761594D01*
X125154122Y-134755740D01*
X124979636Y-134753254D01*
X124956690Y-134753220D01*
X124770983Y-134753027D01*
X124638096Y-134758845D01*
X124553794Y-134780276D01*
X124513845Y-134826916D01*
X124514016Y-134908367D01*
G37*
X124514016Y-134908367D02*
X124550074Y-135034227D01*
X124617786Y-135214095D01*
X124681629Y-135376967D01*
X124726258Y-135504749D01*
X124756171Y-135616131D01*
X124764000Y-135671698D01*
X124785959Y-135755985D01*
X124839640Y-135851261D01*
X124847762Y-135861990D01*
X124901427Y-135950203D01*
X124964055Y-136082327D01*
X125022761Y-136230975D01*
X125026842Y-136242590D01*
X125106212Y-136468970D01*
X125165596Y-136633773D01*
X125208475Y-136746124D01*
X125238328Y-136815152D01*
X125258312Y-136849576D01*
X125306821Y-136864954D01*
X125392567Y-136860321D01*
X125409521Y-136857256D01*
X125534759Y-136832095D01*
X125534759Y-135819619D01*
X125534450Y-135516330D01*
X125533192Y-135279599D01*
X125530484Y-135100950D01*
X125525826Y-134971905D01*
X125518718Y-134883987D01*
X125508660Y-134828720D01*
X125495152Y-134797626D01*
X125477694Y-134782228D01*
X125473448Y-134780182D01*
X125416475Y-134770010D01*
X125304884Y-134761594D01*
X125154122Y-134755740D01*
X124979636Y-134753254D01*
X124956690Y-134753220D01*
X124770983Y-134753027D01*
X124638096Y-134758845D01*
X124553794Y-134780276D01*
X124513845Y-134826916D01*
X124514016Y-134908367D01*
G36*
X125350900Y-141845458D02*
G01*
X125427358Y-141937869D01*
X125550041Y-141974986D01*
X125569777Y-141975525D01*
X125661407Y-141961269D01*
X125766859Y-141925259D01*
X125864751Y-141877626D01*
X125933704Y-141828505D01*
X125953624Y-141793606D01*
X125937644Y-141748047D01*
X125899410Y-141662974D01*
X125881960Y-141626896D01*
X125788780Y-141492575D01*
X125672269Y-141427371D01*
X125525388Y-141427420D01*
X125520348Y-141428407D01*
X125404874Y-141478238D01*
X125341340Y-141574758D01*
X125324552Y-141702081D01*
X125350900Y-141845458D01*
G37*
X125350900Y-141845458D02*
X125427358Y-141937869D01*
X125550041Y-141974986D01*
X125569777Y-141975525D01*
X125661407Y-141961269D01*
X125766859Y-141925259D01*
X125864751Y-141877626D01*
X125933704Y-141828505D01*
X125953624Y-141793606D01*
X125937644Y-141748047D01*
X125899410Y-141662974D01*
X125881960Y-141626896D01*
X125788780Y-141492575D01*
X125672269Y-141427371D01*
X125525388Y-141427420D01*
X125520348Y-141428407D01*
X125404874Y-141478238D01*
X125341340Y-141574758D01*
X125324552Y-141702081D01*
X125350900Y-141845458D01*
G36*
X125718116Y-136849206D02*
G01*
X125819315Y-136872194D01*
X125889783Y-136864294D01*
X125943562Y-136814582D01*
X125994693Y-136712132D01*
X126037274Y-136600883D01*
X126116552Y-136384786D01*
X126175690Y-136224444D01*
X126220011Y-136105702D01*
X126254835Y-136014405D01*
X126285485Y-135936401D01*
X126309887Y-135875752D01*
X126360856Y-135746784D01*
X126413755Y-135607849D01*
X126461692Y-135477727D01*
X126497775Y-135375199D01*
X126515110Y-135319045D01*
X126515724Y-135314844D01*
X126489854Y-135285099D01*
X126423559Y-135227457D01*
X126368639Y-135183606D01*
X126240663Y-135093442D01*
X126097532Y-135006795D01*
X125955957Y-134932195D01*
X125832648Y-134878174D01*
X125744314Y-134853262D01*
X125721961Y-134853468D01*
X125702355Y-134861621D01*
X125687013Y-134882731D01*
X125675298Y-134925338D01*
X125666575Y-134997983D01*
X125660208Y-135109206D01*
X125655562Y-135267547D01*
X125652001Y-135481548D01*
X125648889Y-135759748D01*
X125648047Y-135846597D01*
X125638715Y-136826422D01*
X125718116Y-136849206D01*
G37*
X125718116Y-136849206D02*
X125819315Y-136872194D01*
X125889783Y-136864294D01*
X125943562Y-136814582D01*
X125994693Y-136712132D01*
X126037274Y-136600883D01*
X126116552Y-136384786D01*
X126175690Y-136224444D01*
X126220011Y-136105702D01*
X126254835Y-136014405D01*
X126285485Y-135936401D01*
X126309887Y-135875752D01*
X126360856Y-135746784D01*
X126413755Y-135607849D01*
X126461692Y-135477727D01*
X126497775Y-135375199D01*
X126515110Y-135319045D01*
X126515724Y-135314844D01*
X126489854Y-135285099D01*
X126423559Y-135227457D01*
X126368639Y-135183606D01*
X126240663Y-135093442D01*
X126097532Y-135006795D01*
X125955957Y-134932195D01*
X125832648Y-134878174D01*
X125744314Y-134853262D01*
X125721961Y-134853468D01*
X125702355Y-134861621D01*
X125687013Y-134882731D01*
X125675298Y-134925338D01*
X125666575Y-134997983D01*
X125660208Y-135109206D01*
X125655562Y-135267547D01*
X125652001Y-135481548D01*
X125648889Y-135759748D01*
X125648047Y-135846597D01*
X125638715Y-136826422D01*
X125718116Y-136849206D01*
G36*
X125675206Y-140418418D02*
G01*
X125677032Y-140674957D01*
X125681721Y-140872695D01*
X125690619Y-141019748D01*
X125705073Y-141124235D01*
X125726428Y-141194272D01*
X125756031Y-141237977D01*
X125795228Y-141263468D01*
X125845365Y-141278861D01*
X125872217Y-141284733D01*
X125939087Y-141292193D01*
X125989694Y-141271419D01*
X126043625Y-141209106D01*
X126093255Y-141134559D01*
X126167114Y-141024731D01*
X126234898Y-140932367D01*
X126264918Y-140896263D01*
X126343851Y-140800499D01*
X126442450Y-140664912D01*
X126553070Y-140501886D01*
X126668068Y-140323807D01*
X126779798Y-140143059D01*
X126880616Y-139972027D01*
X126962877Y-139823095D01*
X127018937Y-139708648D01*
X127041151Y-139641071D01*
X127041241Y-139638570D01*
X127018234Y-139595194D01*
X126954934Y-139508947D01*
X126859925Y-139390721D01*
X126741791Y-139251414D01*
X126686199Y-139187943D01*
X126558207Y-139046253D01*
X126444894Y-138926498D01*
X126355822Y-138838354D01*
X126300552Y-138791499D01*
X126289511Y-138786455D01*
X126238244Y-138801878D01*
X126145323Y-138842149D01*
X126040209Y-138893822D01*
X125919347Y-138954171D01*
X125813392Y-139003383D01*
X125753724Y-139027665D01*
X125674897Y-139054141D01*
X125674897Y-140094959D01*
X125675206Y-140418418D01*
G37*
X125675206Y-140418418D02*
X125677032Y-140674957D01*
X125681721Y-140872695D01*
X125690619Y-141019748D01*
X125705073Y-141124235D01*
X125726428Y-141194272D01*
X125756031Y-141237977D01*
X125795228Y-141263468D01*
X125845365Y-141278861D01*
X125872217Y-141284733D01*
X125939087Y-141292193D01*
X125989694Y-141271419D01*
X126043625Y-141209106D01*
X126093255Y-141134559D01*
X126167114Y-141024731D01*
X126234898Y-140932367D01*
X126264918Y-140896263D01*
X126343851Y-140800499D01*
X126442450Y-140664912D01*
X126553070Y-140501886D01*
X126668068Y-140323807D01*
X126779798Y-140143059D01*
X126880616Y-139972027D01*
X126962877Y-139823095D01*
X127018937Y-139708648D01*
X127041151Y-139641071D01*
X127041241Y-139638570D01*
X127018234Y-139595194D01*
X126954934Y-139508947D01*
X126859925Y-139390721D01*
X126741791Y-139251414D01*
X126686199Y-139187943D01*
X126558207Y-139046253D01*
X126444894Y-138926498D01*
X126355822Y-138838354D01*
X126300552Y-138791499D01*
X126289511Y-138786455D01*
X126238244Y-138801878D01*
X126145323Y-138842149D01*
X126040209Y-138893822D01*
X125919347Y-138954171D01*
X125813392Y-139003383D01*
X125753724Y-139027665D01*
X125674897Y-139054141D01*
X125674897Y-140094959D01*
X125675206Y-140418418D01*
G36*
X126106765Y-136968639D02*
G01*
X126146353Y-137007786D01*
X126211401Y-137049239D01*
X126245506Y-137060606D01*
X126284356Y-137034695D01*
X126360688Y-136964099D01*
X126464716Y-136859522D01*
X126586655Y-136731671D01*
X126716716Y-136591250D01*
X126845114Y-136448965D01*
X126962062Y-136315520D01*
X127057775Y-136201621D01*
X127122464Y-136117973D01*
X127146344Y-136075281D01*
X127146345Y-136075203D01*
X127125523Y-136010313D01*
X127073514Y-135920439D01*
X127052547Y-135891033D01*
X126963017Y-135777268D01*
X126865805Y-135662111D01*
X126773582Y-135559562D01*
X126699018Y-135483619D01*
X126654784Y-135448281D01*
X126650929Y-135447312D01*
X126622083Y-135478407D01*
X126600551Y-135531729D01*
X126574654Y-135603081D01*
X126527003Y-135721021D01*
X126466196Y-135864504D01*
X126440535Y-135923382D01*
X126380599Y-136062655D01*
X126334036Y-136176337D01*
X126307732Y-136247358D01*
X126304329Y-136261048D01*
X126289485Y-136310895D01*
X126253539Y-136400435D01*
X126235448Y-136441551D01*
X126193438Y-136545614D01*
X126168985Y-136627234D01*
X126166568Y-136645239D01*
X126154368Y-136715171D01*
X126126144Y-136814834D01*
X126122139Y-136826909D01*
X126097595Y-136916577D01*
X126106765Y-136968639D01*
G37*
X126106765Y-136968639D02*
X126146353Y-137007786D01*
X126211401Y-137049239D01*
X126245506Y-137060606D01*
X126284356Y-137034695D01*
X126360688Y-136964099D01*
X126464716Y-136859522D01*
X126586655Y-136731671D01*
X126716716Y-136591250D01*
X126845114Y-136448965D01*
X126962062Y-136315520D01*
X127057775Y-136201621D01*
X127122464Y-136117973D01*
X127146344Y-136075281D01*
X127146345Y-136075203D01*
X127125523Y-136010313D01*
X127073514Y-135920439D01*
X127052547Y-135891033D01*
X126963017Y-135777268D01*
X126865805Y-135662111D01*
X126773582Y-135559562D01*
X126699018Y-135483619D01*
X126654784Y-135448281D01*
X126650929Y-135447312D01*
X126622083Y-135478407D01*
X126600551Y-135531729D01*
X126574654Y-135603081D01*
X126527003Y-135721021D01*
X126466196Y-135864504D01*
X126440535Y-135923382D01*
X126380599Y-136062655D01*
X126334036Y-136176337D01*
X126307732Y-136247358D01*
X126304329Y-136261048D01*
X126289485Y-136310895D01*
X126253539Y-136400435D01*
X126235448Y-136441551D01*
X126193438Y-136545614D01*
X126168985Y-136627234D01*
X126166568Y-136645239D01*
X126154368Y-136715171D01*
X126126144Y-136814834D01*
X126122139Y-136826909D01*
X126097595Y-136916577D01*
X126106765Y-136968639D01*
G36*
X126450178Y-138668679D02*
G01*
X126510770Y-138757895D01*
X126614216Y-138887421D01*
X126636304Y-138913959D01*
X126738570Y-139033229D01*
X126824755Y-139128005D01*
X126883722Y-139186361D01*
X126902710Y-139199158D01*
X126944999Y-139221331D01*
X127016077Y-139276619D01*
X127040033Y-139297623D01*
X127109886Y-139355720D01*
X127153134Y-139382554D01*
X127158428Y-139382040D01*
X127223544Y-139271924D01*
X127246795Y-139189051D01*
X127230982Y-139102850D01*
X127192375Y-139011566D01*
X127145885Y-138896323D01*
X127117115Y-138796556D01*
X127112755Y-138763383D01*
X127097732Y-138715588D01*
X127046942Y-138667437D01*
X126949049Y-138610306D01*
X126844944Y-138559660D01*
X126694673Y-138494654D01*
X126590935Y-138466497D01*
X126519044Y-138475538D01*
X126464312Y-138522123D01*
X126432903Y-138569420D01*
X126426277Y-138609334D01*
X126450178Y-138668679D01*
G37*
X126450178Y-138668679D02*
X126510770Y-138757895D01*
X126614216Y-138887421D01*
X126636304Y-138913959D01*
X126738570Y-139033229D01*
X126824755Y-139128005D01*
X126883722Y-139186361D01*
X126902710Y-139199158D01*
X126944999Y-139221331D01*
X127016077Y-139276619D01*
X127040033Y-139297623D01*
X127109886Y-139355720D01*
X127153134Y-139382554D01*
X127158428Y-139382040D01*
X127223544Y-139271924D01*
X127246795Y-139189051D01*
X127230982Y-139102850D01*
X127192375Y-139011566D01*
X127145885Y-138896323D01*
X127117115Y-138796556D01*
X127112755Y-138763383D01*
X127097732Y-138715588D01*
X127046942Y-138667437D01*
X126949049Y-138610306D01*
X126844944Y-138559660D01*
X126694673Y-138494654D01*
X126590935Y-138466497D01*
X126519044Y-138475538D01*
X126464312Y-138522123D01*
X126432903Y-138569420D01*
X126426277Y-138609334D01*
X126450178Y-138668679D01*
G36*
X123644399Y-116468829D02*
G01*
X123650056Y-116602440D01*
X123661587Y-116689060D01*
X123680715Y-116742689D01*
X123704207Y-116772767D01*
X123757906Y-116812897D01*
X123859162Y-116879028D01*
X123993596Y-116962066D01*
X124146831Y-117052918D01*
X124150897Y-117055279D01*
X124323671Y-117156866D01*
X124496908Y-117260929D01*
X124648732Y-117354211D01*
X124744422Y-117414999D01*
X124856256Y-117483440D01*
X124949610Y-117532290D01*
X125004328Y-117551005D01*
X125004422Y-117551005D01*
X125073023Y-117573951D01*
X125111586Y-117601418D01*
X125166162Y-117643194D01*
X125262001Y-117709236D01*
X125385017Y-117790583D01*
X125521123Y-117878277D01*
X125656233Y-117963360D01*
X125776261Y-118036873D01*
X125867119Y-118089857D01*
X125914722Y-118113354D01*
X125917229Y-118113782D01*
X125956920Y-118131678D01*
X126044386Y-118180532D01*
X126167098Y-118253085D01*
X126312529Y-118342084D01*
X126327254Y-118351245D01*
X126479347Y-118445655D01*
X126614639Y-118529005D01*
X126718754Y-118592478D01*
X126777312Y-118627259D01*
X126778483Y-118627917D01*
X126852393Y-118669020D01*
X126955243Y-118725931D01*
X126996299Y-118748588D01*
X127111013Y-118817173D01*
X127245430Y-118904971D01*
X127324401Y-118960025D01*
X127473053Y-119058171D01*
X127585267Y-119107821D01*
X127674994Y-119112619D01*
X127756184Y-119076212D01*
X127759704Y-119073774D01*
X127796916Y-119044463D01*
X127821666Y-119009010D01*
X127836448Y-118952934D01*
X127843758Y-118861755D01*
X127846091Y-118720990D01*
X127846072Y-118572518D01*
X127845110Y-118132541D01*
X127679659Y-118044933D01*
X127576115Y-117988257D01*
X127434125Y-117908106D01*
X127276503Y-117817434D01*
X127190138Y-117767022D01*
X126866069Y-117576719D01*
X126866069Y-114967340D01*
X126962414Y-114896352D01*
X127039515Y-114847067D01*
X127158052Y-114779692D01*
X127295544Y-114706880D01*
X127330471Y-114689196D01*
X127474296Y-114612451D01*
X127609296Y-114532439D01*
X127710339Y-114464216D01*
X127724609Y-114453029D01*
X127847035Y-114353029D01*
X127847035Y-113985021D01*
X127846023Y-113815036D01*
X127840651Y-113703138D01*
X127827411Y-113632384D01*
X127802795Y-113585831D01*
X127763296Y-113546535D01*
X127754768Y-113539290D01*
X127662502Y-113461567D01*
X127535803Y-113543770D01*
X127411617Y-113621663D01*
X127314394Y-113674983D01*
X127251448Y-113704556D01*
X127198395Y-113733486D01*
X127102633Y-113790243D01*
X126981709Y-113864351D01*
X126936138Y-113892795D01*
X126785176Y-113984989D01*
X126628288Y-114076809D01*
X126496165Y-114150347D01*
X126480690Y-114158532D01*
X126387532Y-114207416D01*
X126316315Y-114245536D01*
X126250404Y-114282432D01*
X126173163Y-114327641D01*
X126069035Y-114390057D01*
X126069035Y-115413034D01*
X126076490Y-115448640D01*
X126083123Y-115548843D01*
X126088619Y-115703206D01*
X126092660Y-115901290D01*
X126094930Y-116132657D01*
X126095310Y-116279692D01*
X126095310Y-117146932D01*
X126008957Y-117086339D01*
X125930024Y-117041962D01*
X125873708Y-117025746D01*
X125817004Y-117005822D01*
X125730343Y-116955477D01*
X125688544Y-116926617D01*
X125608606Y-116874352D01*
X125481022Y-116797729D01*
X125320982Y-116705587D01*
X125143677Y-116606769D01*
X125070552Y-116566935D01*
X124904584Y-116475345D01*
X124763336Y-116393921D01*
X124657556Y-116329139D01*
X124597993Y-116287471D01*
X124588828Y-116276768D01*
X124617453Y-116246107D01*
X124693240Y-116191757D01*
X124801055Y-116124379D01*
X124825310Y-116110174D01*
X124946396Y-116039908D01*
X125047832Y-115980813D01*
X125109967Y-115944343D01*
X125114345Y-115941733D01*
X125173158Y-115909034D01*
X125271238Y-115856815D01*
X125359586Y-115810765D01*
X125489964Y-115740408D01*
X125646969Y-115651389D01*
X125796738Y-115562909D01*
X125797517Y-115562436D01*
X125915128Y-115492857D01*
X126009220Y-115440513D01*
X126063421Y-115414412D01*
X126069035Y-115413034D01*
X126069035Y-114390057D01*
X126067955Y-114390705D01*
X125920138Y-114479957D01*
X125769419Y-114569952D01*
X125614221Y-114660909D01*
X125485127Y-114734929D01*
X125471347Y-114742658D01*
X125333403Y-114821420D01*
X125176224Y-114913809D01*
X125013635Y-115011384D01*
X124859456Y-115105699D01*
X124727510Y-115188315D01*
X124631620Y-115250786D01*
X124588828Y-115281708D01*
X124510980Y-115328064D01*
X124459160Y-115346892D01*
X124399767Y-115373273D01*
X124295300Y-115430202D01*
X124160567Y-115509263D01*
X124012470Y-115600717D01*
X123642897Y-115834484D01*
X123642897Y-116274226D01*
X123644399Y-116468829D01*
G37*
X123644399Y-116468829D02*
X123650056Y-116602440D01*
X123661587Y-116689060D01*
X123680715Y-116742689D01*
X123704207Y-116772767D01*
X123757906Y-116812897D01*
X123859162Y-116879028D01*
X123993596Y-116962066D01*
X124146831Y-117052918D01*
X124150897Y-117055279D01*
X124323671Y-117156866D01*
X124496908Y-117260929D01*
X124648732Y-117354211D01*
X124744422Y-117414999D01*
X124856256Y-117483440D01*
X124949610Y-117532290D01*
X125004328Y-117551005D01*
X125004422Y-117551005D01*
X125073023Y-117573951D01*
X125111586Y-117601418D01*
X125166162Y-117643194D01*
X125262001Y-117709236D01*
X125385017Y-117790583D01*
X125521123Y-117878277D01*
X125656233Y-117963360D01*
X125776261Y-118036873D01*
X125867119Y-118089857D01*
X125914722Y-118113354D01*
X125917229Y-118113782D01*
X125956920Y-118131678D01*
X126044386Y-118180532D01*
X126167098Y-118253085D01*
X126312529Y-118342084D01*
X126327254Y-118351245D01*
X126479347Y-118445655D01*
X126614639Y-118529005D01*
X126718754Y-118592478D01*
X126777312Y-118627259D01*
X126778483Y-118627917D01*
X126852393Y-118669020D01*
X126955243Y-118725931D01*
X126996299Y-118748588D01*
X127111013Y-118817173D01*
X127245430Y-118904971D01*
X127324401Y-118960025D01*
X127473053Y-119058171D01*
X127585267Y-119107821D01*
X127674994Y-119112619D01*
X127756184Y-119076212D01*
X127759704Y-119073774D01*
X127796916Y-119044463D01*
X127821666Y-119009010D01*
X127836448Y-118952934D01*
X127843758Y-118861755D01*
X127846091Y-118720990D01*
X127846072Y-118572518D01*
X127845110Y-118132541D01*
X127679659Y-118044933D01*
X127576115Y-117988257D01*
X127434125Y-117908106D01*
X127276503Y-117817434D01*
X127190138Y-117767022D01*
X126866069Y-117576719D01*
X126866069Y-114967340D01*
X126962414Y-114896352D01*
X127039515Y-114847067D01*
X127158052Y-114779692D01*
X127295544Y-114706880D01*
X127330471Y-114689196D01*
X127474296Y-114612451D01*
X127609296Y-114532439D01*
X127710339Y-114464216D01*
X127724609Y-114453029D01*
X127847035Y-114353029D01*
X127847035Y-113985021D01*
X127846023Y-113815036D01*
X127840651Y-113703138D01*
X127827411Y-113632384D01*
X127802795Y-113585831D01*
X127763296Y-113546535D01*
X127754768Y-113539290D01*
X127662502Y-113461567D01*
X127535803Y-113543770D01*
X127411617Y-113621663D01*
X127314394Y-113674983D01*
X127251448Y-113704556D01*
X127198395Y-113733486D01*
X127102633Y-113790243D01*
X126981709Y-113864351D01*
X126936138Y-113892795D01*
X126785176Y-113984989D01*
X126628288Y-114076809D01*
X126496165Y-114150347D01*
X126480690Y-114158532D01*
X126387532Y-114207416D01*
X126316315Y-114245536D01*
X126250404Y-114282432D01*
X126173163Y-114327641D01*
X126069035Y-114390057D01*
X126069035Y-115413034D01*
X126076490Y-115448640D01*
X126083123Y-115548843D01*
X126088619Y-115703206D01*
X126092660Y-115901290D01*
X126094930Y-116132657D01*
X126095310Y-116279692D01*
X126095310Y-117146932D01*
X126008957Y-117086339D01*
X125930024Y-117041962D01*
X125873708Y-117025746D01*
X125817004Y-117005822D01*
X125730343Y-116955477D01*
X125688544Y-116926617D01*
X125608606Y-116874352D01*
X125481022Y-116797729D01*
X125320982Y-116705587D01*
X125143677Y-116606769D01*
X125070552Y-116566935D01*
X124904584Y-116475345D01*
X124763336Y-116393921D01*
X124657556Y-116329139D01*
X124597993Y-116287471D01*
X124588828Y-116276768D01*
X124617453Y-116246107D01*
X124693240Y-116191757D01*
X124801055Y-116124379D01*
X124825310Y-116110174D01*
X124946396Y-116039908D01*
X125047832Y-115980813D01*
X125109967Y-115944343D01*
X125114345Y-115941733D01*
X125173158Y-115909034D01*
X125271238Y-115856815D01*
X125359586Y-115810765D01*
X125489964Y-115740408D01*
X125646969Y-115651389D01*
X125796738Y-115562909D01*
X125797517Y-115562436D01*
X125915128Y-115492857D01*
X126009220Y-115440513D01*
X126063421Y-115414412D01*
X126069035Y-115413034D01*
X126069035Y-114390057D01*
X126067955Y-114390705D01*
X125920138Y-114479957D01*
X125769419Y-114569952D01*
X125614221Y-114660909D01*
X125485127Y-114734929D01*
X125471347Y-114742658D01*
X125333403Y-114821420D01*
X125176224Y-114913809D01*
X125013635Y-115011384D01*
X124859456Y-115105699D01*
X124727510Y-115188315D01*
X124631620Y-115250786D01*
X124588828Y-115281708D01*
X124510980Y-115328064D01*
X124459160Y-115346892D01*
X124399767Y-115373273D01*
X124295300Y-115430202D01*
X124160567Y-115509263D01*
X124012470Y-115600717D01*
X123642897Y-115834484D01*
X123642897Y-116274226D01*
X123644399Y-116468829D01*
G36*
X123642972Y-109623035D02*
G01*
X123643219Y-110287441D01*
X123643674Y-110883924D01*
X123644372Y-111416042D01*
X123645346Y-111887351D01*
X123646631Y-112301409D01*
X123648262Y-112661774D01*
X123650274Y-112972001D01*
X123652700Y-113235648D01*
X123655576Y-113456273D01*
X123658937Y-113637432D01*
X123662816Y-113782682D01*
X123667249Y-113895581D01*
X123672270Y-113979686D01*
X123677914Y-114038554D01*
X123684215Y-114075742D01*
X123691208Y-114094807D01*
X123693580Y-114097646D01*
X123750420Y-114118052D01*
X123856707Y-114133850D01*
X123991909Y-114144296D01*
X124135497Y-114148648D01*
X124266942Y-114146163D01*
X124365713Y-114136098D01*
X124405575Y-114123413D01*
X124419870Y-114093614D01*
X124430938Y-114021130D01*
X124439068Y-113899559D01*
X124444545Y-113722496D01*
X124447656Y-113483538D01*
X124448688Y-113176282D01*
X124448690Y-113159494D01*
X124448690Y-112224111D01*
X126121586Y-112214367D01*
X127794483Y-112204624D01*
X127804464Y-111797343D01*
X127805598Y-111575720D01*
X127796567Y-111423651D01*
X127777518Y-111343342D01*
X127773899Y-111337741D01*
X127754180Y-111325267D01*
X127712338Y-111314865D01*
X127642791Y-111306364D01*
X127539960Y-111299588D01*
X127398266Y-111294365D01*
X127212129Y-111290521D01*
X126975970Y-111287883D01*
X126684209Y-111286277D01*
X126331266Y-111285530D01*
X126091021Y-111285421D01*
X124448690Y-111285421D01*
X124448690Y-108621610D01*
X126080096Y-108621610D01*
X126511423Y-108620753D01*
X126882843Y-108618206D01*
X127192631Y-108614010D01*
X127439063Y-108608204D01*
X127620416Y-108600827D01*
X127734965Y-108591919D01*
X127779269Y-108582772D01*
X127815745Y-108550378D01*
X127836450Y-108493411D01*
X127845474Y-108393579D01*
X127847035Y-108279559D01*
X127844360Y-108135741D01*
X127830609Y-108038185D01*
X127797186Y-107958163D01*
X127735499Y-107866948D01*
X127715655Y-107840361D01*
X127622177Y-107722191D01*
X127504672Y-107582114D01*
X127391586Y-107453810D01*
X127222798Y-107265490D01*
X127039467Y-107055119D01*
X126835104Y-106815021D01*
X126603221Y-106537522D01*
X126337328Y-106214949D01*
X126142443Y-105976559D01*
X125966046Y-105761462D01*
X125784728Y-105542570D01*
X125610172Y-105333828D01*
X125454059Y-105149183D01*
X125328072Y-105002581D01*
X125293892Y-104963560D01*
X124995976Y-104625894D01*
X126374619Y-104616073D01*
X126773944Y-104612312D01*
X127105036Y-104607167D01*
X127369718Y-104600574D01*
X127569816Y-104592465D01*
X127707153Y-104582775D01*
X127783554Y-104571439D01*
X127800148Y-104564581D01*
X127825445Y-104503619D01*
X127841472Y-104385747D01*
X127848568Y-104228385D01*
X127847068Y-104048954D01*
X127837309Y-103864871D01*
X127819629Y-103693557D01*
X127794363Y-103552430D01*
X127779576Y-103500340D01*
X127739599Y-103376416D01*
X127688897Y-103210326D01*
X127636511Y-103031893D01*
X127620309Y-102975082D01*
X127572101Y-102809318D01*
X127508732Y-102598176D01*
X127437958Y-102367185D01*
X127367538Y-102141878D01*
X127358121Y-102112157D01*
X127297795Y-101920309D01*
X127221717Y-101675602D01*
X127135611Y-101396603D01*
X127045197Y-101101880D01*
X126956199Y-100810000D01*
X126918721Y-100686455D01*
X126829127Y-100391908D01*
X126732707Y-100077184D01*
X126635953Y-99763319D01*
X126545356Y-99471350D01*
X126467408Y-99222312D01*
X126444004Y-99148198D01*
X126373841Y-98926033D01*
X126307101Y-98713481D01*
X126248898Y-98526915D01*
X126204343Y-98382708D01*
X126182941Y-98312138D01*
X126123923Y-98113891D01*
X125790863Y-98123990D01*
X125790863Y-99501249D01*
X125814107Y-99548517D01*
X125853924Y-99651601D01*
X125905178Y-99794975D01*
X125962729Y-99963114D01*
X126021441Y-100140488D01*
X126076175Y-100311573D01*
X126121793Y-100460841D01*
X126153158Y-100572766D01*
X126165132Y-100631820D01*
X126165138Y-100632319D01*
X126175767Y-100690350D01*
X126204350Y-100802108D01*
X126246243Y-100950290D01*
X126285947Y-101082540D01*
X126334916Y-101243520D01*
X126374713Y-101377852D01*
X126400735Y-101469769D01*
X126408568Y-101502482D01*
X126376049Y-101511443D01*
X126284438Y-101519225D01*
X126144711Y-101525340D01*
X125967841Y-101529300D01*
X125780000Y-101530595D01*
X125780000Y-102656175D01*
X126080920Y-102657083D01*
X126317852Y-102660002D01*
X126496860Y-102665224D01*
X126624007Y-102673041D01*
X126705355Y-102683746D01*
X126746969Y-102697631D01*
X126753101Y-102703073D01*
X126783720Y-102764415D01*
X126822310Y-102869077D01*
X126843744Y-102937563D01*
X126889171Y-103087258D01*
X126942442Y-103255223D01*
X126967483Y-103331507D01*
X126998863Y-103420001D01*
X127023875Y-103491646D01*
X127036419Y-103548206D01*
X127030396Y-103591446D01*
X126999705Y-103623129D01*
X126938248Y-103645019D01*
X126839924Y-103658879D01*
X126698634Y-103666473D01*
X126508278Y-103669566D01*
X126262756Y-103669920D01*
X125955969Y-103669300D01*
X125799720Y-103669173D01*
X124558198Y-103669173D01*
X124577389Y-103528479D01*
X124597653Y-103419293D01*
X124631664Y-103274336D01*
X124673933Y-103113192D01*
X124718974Y-102955445D01*
X124761298Y-102820680D01*
X124795420Y-102728480D01*
X124808656Y-102703073D01*
X124837529Y-102688069D01*
X124903935Y-102676338D01*
X125013949Y-102667588D01*
X125173646Y-102661524D01*
X125389102Y-102657853D01*
X125666393Y-102656283D01*
X125780000Y-102656175D01*
X125780000Y-101530595D01*
X125776252Y-101530621D01*
X125541570Y-101529482D01*
X125369625Y-101525698D01*
X125253111Y-101518717D01*
X125184722Y-101507984D01*
X125157153Y-101492948D01*
X125156368Y-101483723D01*
X125202523Y-101333333D01*
X125261117Y-101140974D01*
X125328229Y-100919667D01*
X125399936Y-100682435D01*
X125472318Y-100442301D01*
X125541453Y-100212287D01*
X125603420Y-100005415D01*
X125654297Y-99834709D01*
X125690162Y-99713191D01*
X125704262Y-99664276D01*
X125741208Y-99555917D01*
X125774256Y-99501736D01*
X125790863Y-99501249D01*
X125790863Y-98123990D01*
X125772549Y-98124546D01*
X125421175Y-98135200D01*
X125318265Y-98435347D01*
X125261939Y-98603417D01*
X125207691Y-98771638D01*
X125166034Y-98907319D01*
X125161450Y-98923087D01*
X125128335Y-99035323D01*
X125079865Y-99195849D01*
X125022979Y-99381818D01*
X124973409Y-99542142D01*
X124856360Y-99919210D01*
X124750190Y-100262367D01*
X124657649Y-100562686D01*
X124581485Y-100811239D01*
X124524450Y-100999101D01*
X124516926Y-101024121D01*
X124482719Y-101136690D01*
X124431722Y-101302745D01*
X124369387Y-101504618D01*
X124301164Y-101724639D01*
X124256471Y-101868287D01*
X124174285Y-102132247D01*
X124081907Y-102429241D01*
X123989122Y-102727793D01*
X123959916Y-102821857D01*
X123959916Y-104700931D01*
X124123858Y-104907282D01*
X124234274Y-105041538D01*
X124353974Y-105179945D01*
X124438314Y-105272456D01*
X124518232Y-105361274D01*
X124572813Y-105430516D01*
X124588828Y-105460485D01*
X124611794Y-105497798D01*
X124673953Y-105576125D01*
X124765197Y-105683160D01*
X124851586Y-105780355D01*
X124958759Y-105901663D01*
X125044843Y-106004345D01*
X125099717Y-106075989D01*
X125114345Y-106102506D01*
X125137828Y-106140348D01*
X125201294Y-106217910D01*
X125294270Y-106322848D01*
X125376698Y-106411702D01*
X125485141Y-106530277D01*
X125571836Y-106632274D01*
X125626222Y-106704820D01*
X125639456Y-106731942D01*
X125663894Y-106779194D01*
X125726191Y-106854758D01*
X125779930Y-106909989D01*
X125842013Y-106974347D01*
X125930824Y-107071767D01*
X126035352Y-107189521D01*
X126144588Y-107314882D01*
X126247521Y-107435122D01*
X126333141Y-107537514D01*
X126390438Y-107609330D01*
X126408632Y-107636751D01*
X126375393Y-107638932D01*
X126279997Y-107640934D01*
X126130354Y-107642695D01*
X125934376Y-107644156D01*
X125699973Y-107645255D01*
X125435058Y-107645932D01*
X125184414Y-107646130D01*
X123958207Y-107646130D01*
X123959061Y-106173531D01*
X123959916Y-104700931D01*
X123959916Y-102821857D01*
X123905713Y-102996430D01*
X123883239Y-103068878D01*
X123820710Y-103266910D01*
X123763807Y-103440473D01*
X123716899Y-103576744D01*
X123684357Y-103662900D01*
X123672892Y-103686056D01*
X123669312Y-103727172D01*
X123665853Y-103839004D01*
X123662541Y-104017232D01*
X123659401Y-104257536D01*
X123656458Y-104555595D01*
X123653736Y-104907090D01*
X123651261Y-105307700D01*
X123649057Y-105753104D01*
X123647149Y-106238982D01*
X123645563Y-106761014D01*
X123644323Y-107314879D01*
X123643453Y-107896258D01*
X123642980Y-108500829D01*
X123642897Y-108887149D01*
X123642972Y-109623035D01*
G37*
X123642972Y-109623035D02*
X123643219Y-110287441D01*
X123643674Y-110883924D01*
X123644372Y-111416042D01*
X123645346Y-111887351D01*
X123646631Y-112301409D01*
X123648262Y-112661774D01*
X123650274Y-112972001D01*
X123652700Y-113235648D01*
X123655576Y-113456273D01*
X123658937Y-113637432D01*
X123662816Y-113782682D01*
X123667249Y-113895581D01*
X123672270Y-113979686D01*
X123677914Y-114038554D01*
X123684215Y-114075742D01*
X123691208Y-114094807D01*
X123693580Y-114097646D01*
X123750420Y-114118052D01*
X123856707Y-114133850D01*
X123991909Y-114144296D01*
X124135497Y-114148648D01*
X124266942Y-114146163D01*
X124365713Y-114136098D01*
X124405575Y-114123413D01*
X124419870Y-114093614D01*
X124430938Y-114021130D01*
X124439068Y-113899559D01*
X124444545Y-113722496D01*
X124447656Y-113483538D01*
X124448688Y-113176282D01*
X124448690Y-113159494D01*
X124448690Y-112224111D01*
X126121586Y-112214367D01*
X127794483Y-112204624D01*
X127804464Y-111797343D01*
X127805598Y-111575720D01*
X127796567Y-111423651D01*
X127777518Y-111343342D01*
X127773899Y-111337741D01*
X127754180Y-111325267D01*
X127712338Y-111314865D01*
X127642791Y-111306364D01*
X127539960Y-111299588D01*
X127398266Y-111294365D01*
X127212129Y-111290521D01*
X126975970Y-111287883D01*
X126684209Y-111286277D01*
X126331266Y-111285530D01*
X126091021Y-111285421D01*
X124448690Y-111285421D01*
X124448690Y-108621610D01*
X126080096Y-108621610D01*
X126511423Y-108620753D01*
X126882843Y-108618206D01*
X127192631Y-108614010D01*
X127439063Y-108608204D01*
X127620416Y-108600827D01*
X127734965Y-108591919D01*
X127779269Y-108582772D01*
X127815745Y-108550378D01*
X127836450Y-108493411D01*
X127845474Y-108393579D01*
X127847035Y-108279559D01*
X127844360Y-108135741D01*
X127830609Y-108038185D01*
X127797186Y-107958163D01*
X127735499Y-107866948D01*
X127715655Y-107840361D01*
X127622177Y-107722191D01*
X127504672Y-107582114D01*
X127391586Y-107453810D01*
X127222798Y-107265490D01*
X127039467Y-107055119D01*
X126835104Y-106815021D01*
X126603221Y-106537522D01*
X126337328Y-106214949D01*
X126142443Y-105976559D01*
X125966046Y-105761462D01*
X125784728Y-105542570D01*
X125610172Y-105333828D01*
X125454059Y-105149183D01*
X125328072Y-105002581D01*
X125293892Y-104963560D01*
X124995976Y-104625894D01*
X126374619Y-104616073D01*
X126773944Y-104612312D01*
X127105036Y-104607167D01*
X127369718Y-104600574D01*
X127569816Y-104592465D01*
X127707153Y-104582775D01*
X127783554Y-104571439D01*
X127800148Y-104564581D01*
X127825445Y-104503619D01*
X127841472Y-104385747D01*
X127848568Y-104228385D01*
X127847068Y-104048954D01*
X127837309Y-103864871D01*
X127819629Y-103693557D01*
X127794363Y-103552430D01*
X127779576Y-103500340D01*
X127739599Y-103376416D01*
X127688897Y-103210326D01*
X127636511Y-103031893D01*
X127620309Y-102975082D01*
X127572101Y-102809318D01*
X127508732Y-102598176D01*
X127437958Y-102367185D01*
X127367538Y-102141878D01*
X127358121Y-102112157D01*
X127297795Y-101920309D01*
X127221717Y-101675602D01*
X127135611Y-101396603D01*
X127045197Y-101101880D01*
X126956199Y-100810000D01*
X126918721Y-100686455D01*
X126829127Y-100391908D01*
X126732707Y-100077184D01*
X126635953Y-99763319D01*
X126545356Y-99471350D01*
X126467408Y-99222312D01*
X126444004Y-99148198D01*
X126373841Y-98926033D01*
X126307101Y-98713481D01*
X126248898Y-98526915D01*
X126204343Y-98382708D01*
X126182941Y-98312138D01*
X126123923Y-98113891D01*
X125790863Y-98123990D01*
X125790863Y-99501249D01*
X125814107Y-99548517D01*
X125853924Y-99651601D01*
X125905178Y-99794975D01*
X125962729Y-99963114D01*
X126021441Y-100140488D01*
X126076175Y-100311573D01*
X126121793Y-100460841D01*
X126153158Y-100572766D01*
X126165132Y-100631820D01*
X126165138Y-100632319D01*
X126175767Y-100690350D01*
X126204350Y-100802108D01*
X126246243Y-100950290D01*
X126285947Y-101082540D01*
X126334916Y-101243520D01*
X126374713Y-101377852D01*
X126400735Y-101469769D01*
X126408568Y-101502482D01*
X126376049Y-101511443D01*
X126284438Y-101519225D01*
X126144711Y-101525340D01*
X125967841Y-101529300D01*
X125780000Y-101530595D01*
X125780000Y-102656175D01*
X126080920Y-102657083D01*
X126317852Y-102660002D01*
X126496860Y-102665224D01*
X126624007Y-102673041D01*
X126705355Y-102683746D01*
X126746969Y-102697631D01*
X126753101Y-102703073D01*
X126783720Y-102764415D01*
X126822310Y-102869077D01*
X126843744Y-102937563D01*
X126889171Y-103087258D01*
X126942442Y-103255223D01*
X126967483Y-103331507D01*
X126998863Y-103420001D01*
X127023875Y-103491646D01*
X127036419Y-103548206D01*
X127030396Y-103591446D01*
X126999705Y-103623129D01*
X126938248Y-103645019D01*
X126839924Y-103658879D01*
X126698634Y-103666473D01*
X126508278Y-103669566D01*
X126262756Y-103669920D01*
X125955969Y-103669300D01*
X125799720Y-103669173D01*
X124558198Y-103669173D01*
X124577389Y-103528479D01*
X124597653Y-103419293D01*
X124631664Y-103274336D01*
X124673933Y-103113192D01*
X124718974Y-102955445D01*
X124761298Y-102820680D01*
X124795420Y-102728480D01*
X124808656Y-102703073D01*
X124837529Y-102688069D01*
X124903935Y-102676338D01*
X125013949Y-102667588D01*
X125173646Y-102661524D01*
X125389102Y-102657853D01*
X125666393Y-102656283D01*
X125780000Y-102656175D01*
X125780000Y-101530595D01*
X125776252Y-101530621D01*
X125541570Y-101529482D01*
X125369625Y-101525698D01*
X125253111Y-101518717D01*
X125184722Y-101507984D01*
X125157153Y-101492948D01*
X125156368Y-101483723D01*
X125202523Y-101333333D01*
X125261117Y-101140974D01*
X125328229Y-100919667D01*
X125399936Y-100682435D01*
X125472318Y-100442301D01*
X125541453Y-100212287D01*
X125603420Y-100005415D01*
X125654297Y-99834709D01*
X125690162Y-99713191D01*
X125704262Y-99664276D01*
X125741208Y-99555917D01*
X125774256Y-99501736D01*
X125790863Y-99501249D01*
X125790863Y-98123990D01*
X125772549Y-98124546D01*
X125421175Y-98135200D01*
X125318265Y-98435347D01*
X125261939Y-98603417D01*
X125207691Y-98771638D01*
X125166034Y-98907319D01*
X125161450Y-98923087D01*
X125128335Y-99035323D01*
X125079865Y-99195849D01*
X125022979Y-99381818D01*
X124973409Y-99542142D01*
X124856360Y-99919210D01*
X124750190Y-100262367D01*
X124657649Y-100562686D01*
X124581485Y-100811239D01*
X124524450Y-100999101D01*
X124516926Y-101024121D01*
X124482719Y-101136690D01*
X124431722Y-101302745D01*
X124369387Y-101504618D01*
X124301164Y-101724639D01*
X124256471Y-101868287D01*
X124174285Y-102132247D01*
X124081907Y-102429241D01*
X123989122Y-102727793D01*
X123959916Y-102821857D01*
X123959916Y-104700931D01*
X124123858Y-104907282D01*
X124234274Y-105041538D01*
X124353974Y-105179945D01*
X124438314Y-105272456D01*
X124518232Y-105361274D01*
X124572813Y-105430516D01*
X124588828Y-105460485D01*
X124611794Y-105497798D01*
X124673953Y-105576125D01*
X124765197Y-105683160D01*
X124851586Y-105780355D01*
X124958759Y-105901663D01*
X125044843Y-106004345D01*
X125099717Y-106075989D01*
X125114345Y-106102506D01*
X125137828Y-106140348D01*
X125201294Y-106217910D01*
X125294270Y-106322848D01*
X125376698Y-106411702D01*
X125485141Y-106530277D01*
X125571836Y-106632274D01*
X125626222Y-106704820D01*
X125639456Y-106731942D01*
X125663894Y-106779194D01*
X125726191Y-106854758D01*
X125779930Y-106909989D01*
X125842013Y-106974347D01*
X125930824Y-107071767D01*
X126035352Y-107189521D01*
X126144588Y-107314882D01*
X126247521Y-107435122D01*
X126333141Y-107537514D01*
X126390438Y-107609330D01*
X126408632Y-107636751D01*
X126375393Y-107638932D01*
X126279997Y-107640934D01*
X126130354Y-107642695D01*
X125934376Y-107644156D01*
X125699973Y-107645255D01*
X125435058Y-107645932D01*
X125184414Y-107646130D01*
X123958207Y-107646130D01*
X123959061Y-106173531D01*
X123959916Y-104700931D01*
X123959916Y-102821857D01*
X123905713Y-102996430D01*
X123883239Y-103068878D01*
X123820710Y-103266910D01*
X123763807Y-103440473D01*
X123716899Y-103576744D01*
X123684357Y-103662900D01*
X123672892Y-103686056D01*
X123669312Y-103727172D01*
X123665853Y-103839004D01*
X123662541Y-104017232D01*
X123659401Y-104257536D01*
X123656458Y-104555595D01*
X123653736Y-104907090D01*
X123651261Y-105307700D01*
X123649057Y-105753104D01*
X123647149Y-106238982D01*
X123645563Y-106761014D01*
X123644323Y-107314879D01*
X123643453Y-107896258D01*
X123642980Y-108500829D01*
X123642897Y-108887149D01*
X123642972Y-109623035D01*
G36*
X123640653Y-126785191D02*
G01*
X123641799Y-127127581D01*
X123643988Y-127459933D01*
X123647208Y-127773839D01*
X123651447Y-128060888D01*
X123656693Y-128312673D01*
X123662935Y-128520783D01*
X123670160Y-128676810D01*
X123678358Y-128772344D01*
X123684938Y-128799040D01*
X123741264Y-128821789D01*
X123847040Y-128836807D01*
X123982019Y-128844093D01*
X124125955Y-128843647D01*
X124258603Y-128835471D01*
X124359714Y-128819563D01*
X124406648Y-128799040D01*
X124417604Y-128766961D01*
X124426684Y-128693070D01*
X124434013Y-128572546D01*
X124439712Y-128400568D01*
X124443906Y-128172314D01*
X124446717Y-127882963D01*
X124448269Y-127527695D01*
X124448690Y-127152242D01*
X124448910Y-126760374D01*
X124449720Y-126436981D01*
X124451343Y-126175502D01*
X124454003Y-125969376D01*
X124457924Y-125812043D01*
X124463330Y-125696940D01*
X124470444Y-125617508D01*
X124479491Y-125567185D01*
X124490694Y-125539410D01*
X124504107Y-125527692D01*
X124563549Y-125517107D01*
X124672436Y-125509141D01*
X124810156Y-125505143D01*
X124851586Y-125504919D01*
X124993729Y-125507546D01*
X125112883Y-125514524D01*
X125188435Y-125524504D01*
X125199066Y-125527692D01*
X125216146Y-125542304D01*
X125229371Y-125576035D01*
X125239218Y-125637360D01*
X125246163Y-125734752D01*
X125250680Y-125876685D01*
X125253246Y-126071634D01*
X125254338Y-126328071D01*
X125254483Y-126514428D01*
X125255542Y-126838641D01*
X125258872Y-127093311D01*
X125264699Y-127283897D01*
X125273252Y-127415862D01*
X125284758Y-127494665D01*
X125296524Y-127523412D01*
X125356356Y-127547481D01*
X125478198Y-127562800D01*
X125654372Y-127568425D01*
X125663154Y-127568435D01*
X125818730Y-127566661D01*
X125918913Y-127559376D01*
X125978335Y-127543639D01*
X126011633Y-127516505D01*
X126024009Y-127495864D01*
X126035735Y-127434155D01*
X126045453Y-127304107D01*
X126052923Y-127112392D01*
X126057906Y-126865685D01*
X126060164Y-126570659D01*
X126060276Y-126482866D01*
X126060276Y-125542438D01*
X127041241Y-125542438D01*
X127041241Y-127147383D01*
X127041091Y-127558091D01*
X127041389Y-127900044D01*
X127043261Y-128179521D01*
X127047830Y-128402803D01*
X127056222Y-128576168D01*
X127069560Y-128705895D01*
X127088970Y-128798263D01*
X127115576Y-128859552D01*
X127150502Y-128896041D01*
X127194874Y-128914009D01*
X127249814Y-128919734D01*
X127316449Y-128919497D01*
X127358538Y-128919099D01*
X127566759Y-128919099D01*
X127566759Y-129185743D01*
X127565066Y-129323769D01*
X127557604Y-129400760D01*
X127540794Y-129430679D01*
X127511061Y-129427492D01*
X127505448Y-129425103D01*
X127238208Y-129334825D01*
X126949391Y-129296531D01*
X126851742Y-129294393D01*
X126568276Y-129294502D01*
X126467294Y-129657440D01*
X126422034Y-129822797D01*
X126395689Y-129934000D01*
X126386872Y-130008718D01*
X126394196Y-130064615D01*
X126416274Y-130119358D01*
X126429018Y-130145072D01*
X126491724Y-130269764D01*
X127041241Y-130269764D01*
X127041241Y-133083649D01*
X126130345Y-133083649D01*
X126130345Y-131643496D01*
X126129933Y-131238744D01*
X126128069Y-130901664D01*
X126123816Y-130624895D01*
X126116232Y-130401073D01*
X126104379Y-130222838D01*
X126087318Y-130082826D01*
X126064108Y-129973676D01*
X126033811Y-129888025D01*
X125995486Y-129818510D01*
X125948195Y-129757771D01*
X125890998Y-129698443D01*
X125880896Y-129688621D01*
X125774400Y-129600000D01*
X125655937Y-129534235D01*
X125514239Y-129488829D01*
X125338037Y-129461286D01*
X125116061Y-129449110D01*
X124837042Y-129449804D01*
X124805875Y-129450478D01*
X124592311Y-129456349D01*
X124435239Y-129463923D01*
X124321083Y-129475126D01*
X124236266Y-129491886D01*
X124167213Y-129516129D01*
X124100347Y-129549782D01*
X124098345Y-129550895D01*
X123911184Y-129677196D01*
X123782302Y-129819644D01*
X123699965Y-129991384D01*
X123697022Y-130000464D01*
X123683336Y-130053703D01*
X123672089Y-130124030D01*
X123663057Y-130218604D01*
X123656018Y-130344585D01*
X123650749Y-130509132D01*
X123647025Y-130719403D01*
X123644625Y-130982558D01*
X123643324Y-131305756D01*
X123642899Y-131696156D01*
X123642897Y-131736557D01*
X123643063Y-132122709D01*
X123643759Y-132441291D01*
X123645277Y-132699770D01*
X123647910Y-132905612D01*
X123651951Y-133066286D01*
X123657693Y-133189256D01*
X123665429Y-133281991D01*
X123675451Y-133351956D01*
X123688054Y-133406619D01*
X123703530Y-133453447D01*
X123711023Y-133472740D01*
X123806731Y-133632593D01*
X123954441Y-133782108D01*
X124136368Y-133904228D01*
X124187248Y-133929465D01*
X124268088Y-133953391D01*
X124385721Y-133972992D01*
X124519673Y-133986785D01*
X124649470Y-133993291D01*
X124754637Y-133991029D01*
X124814700Y-133978519D01*
X124819055Y-133975158D01*
X124841312Y-133926254D01*
X124874424Y-133825416D01*
X124912595Y-133693598D01*
X124950026Y-133551753D01*
X124980922Y-133420835D01*
X124999147Y-133324215D01*
X124997398Y-133212728D01*
X124950056Y-133138912D01*
X124850172Y-133097627D01*
X124690796Y-133083732D01*
X124673911Y-133083649D01*
X124448690Y-133083649D01*
X124448690Y-130391699D01*
X124558172Y-130368250D01*
X124665898Y-130354280D01*
X124809802Y-130347099D01*
X124964237Y-130346700D01*
X125103557Y-130353075D01*
X125202113Y-130366216D01*
X125210690Y-130368448D01*
X125289517Y-130391071D01*
X125290287Y-131878054D01*
X125290609Y-132273325D01*
X125291825Y-132601106D01*
X125294984Y-132868947D01*
X125301129Y-133084396D01*
X125311309Y-133254999D01*
X125326570Y-133388306D01*
X125347957Y-133491865D01*
X125376517Y-133573222D01*
X125413298Y-133639927D01*
X125459344Y-133699528D01*
X125515703Y-133759571D01*
X125556858Y-133800907D01*
X125649862Y-133884363D01*
X125746264Y-133945272D01*
X125860368Y-133988018D01*
X126006479Y-134016987D01*
X126198904Y-134036563D01*
X126357873Y-134046449D01*
X126697282Y-134051482D01*
X126994487Y-134029251D01*
X127241432Y-133980800D01*
X127429521Y-133907470D01*
X127566759Y-133832493D01*
X127561543Y-137041847D01*
X127480452Y-136793631D01*
X127375195Y-136519082D01*
X127262634Y-136313987D01*
X127235894Y-136334113D01*
X127167977Y-136399260D01*
X127067067Y-136501187D01*
X126941346Y-136631655D01*
X126824493Y-136755209D01*
X126396372Y-137211439D01*
X126499036Y-137426791D01*
X126555010Y-137559505D01*
X126590224Y-137689769D01*
X126611141Y-137846882D01*
X126620022Y-137975306D01*
X126638345Y-138308469D01*
X126899856Y-138415869D01*
X127032976Y-138468274D01*
X127115971Y-138493351D01*
X127163011Y-138493606D01*
X127188264Y-138471543D01*
X127190632Y-138467269D01*
X127252685Y-138401217D01*
X127351758Y-138340611D01*
X127455757Y-138303227D01*
X127494950Y-138298715D01*
X127556988Y-138319830D01*
X127570674Y-138368887D01*
X127540417Y-138424461D01*
X127470632Y-138465122D01*
X127460111Y-138467912D01*
X127336399Y-138526913D01*
X127249715Y-138626907D01*
X127216423Y-138748885D01*
X127216414Y-138750952D01*
X127244573Y-138876528D01*
X127316961Y-138980682D01*
X127415443Y-139041594D01*
X127464198Y-139049085D01*
X127566759Y-139049085D01*
X127566759Y-140587342D01*
X127847035Y-140587342D01*
X127848431Y-139527445D01*
X127848976Y-139218862D01*
X127850018Y-138978221D01*
X127852033Y-138798427D01*
X127855495Y-138672385D01*
X127860878Y-138593000D01*
X127868656Y-138553178D01*
X127879303Y-138545822D01*
X127893296Y-138563838D01*
X127910520Y-138598863D01*
X127963662Y-138721992D01*
X128027337Y-138881568D01*
X128094324Y-139057995D01*
X128157403Y-139231677D01*
X128209353Y-139383017D01*
X128242952Y-139492421D01*
X128249229Y-139518065D01*
X128282359Y-139638114D01*
X128320681Y-139743176D01*
X128375224Y-139875308D01*
X128439457Y-140036722D01*
X128507916Y-140212947D01*
X128575135Y-140389509D01*
X128635648Y-140551937D01*
X128683992Y-140685759D01*
X128714700Y-140776503D01*
X128722897Y-140808275D01*
X128735291Y-140854329D01*
X128769865Y-140958829D01*
X128822710Y-141110580D01*
X128889915Y-141298389D01*
X128967569Y-141511060D01*
X128983122Y-141553193D01*
X129075393Y-141803816D01*
X129170561Y-142064217D01*
X129261150Y-142313811D01*
X129339686Y-142532014D01*
X129391932Y-142678996D01*
X129457728Y-142855289D01*
X129516105Y-142991590D01*
X129561972Y-143076892D01*
X129587155Y-143101079D01*
X129598170Y-143089534D01*
X129607336Y-143051150D01*
X129614791Y-142980299D01*
X129620674Y-142871357D01*
X129625122Y-142718697D01*
X129628272Y-142516693D01*
X129630263Y-142259719D01*
X129631233Y-141942149D01*
X129631318Y-141558356D01*
X129631027Y-141309572D01*
X129630078Y-140948582D01*
X129628432Y-140609587D01*
X129626179Y-140300163D01*
X129623410Y-140027887D01*
X129620215Y-139800336D01*
X129616685Y-139625086D01*
X129612910Y-139509714D01*
X129608980Y-139461797D01*
X129608977Y-139461788D01*
X129583247Y-139393802D01*
X129541943Y-139291058D01*
X129525985Y-139252413D01*
X129475180Y-139125958D01*
X129416733Y-138974378D01*
X129387474Y-138896082D01*
X129342228Y-138779068D01*
X129303610Y-138689419D01*
X129285472Y-138655234D01*
X129260448Y-138594373D01*
X129237242Y-138498743D01*
X129236402Y-138494080D01*
X129215310Y-138419368D01*
X129170688Y-138290363D01*
X129107760Y-138121198D01*
X129031747Y-137926009D01*
X128968714Y-137769623D01*
X128888507Y-137570746D01*
X128819259Y-137393678D01*
X128765580Y-137250646D01*
X128732078Y-137153879D01*
X128722897Y-137117628D01*
X128709701Y-137062008D01*
X128674409Y-136956539D01*
X128623467Y-136819905D01*
X128597483Y-136754049D01*
X128489202Y-136480974D01*
X128386515Y-136215904D01*
X128295670Y-135975310D01*
X128222915Y-135775663D01*
X128187204Y-135672423D01*
X128147884Y-135561116D01*
X128090733Y-135407267D01*
X128025623Y-135237258D01*
X127997703Y-135165924D01*
X127864552Y-134828257D01*
X127855302Y-127083905D01*
X127854018Y-126108379D01*
X127852579Y-125206156D01*
X127850974Y-124375504D01*
X127849192Y-123614689D01*
X127847223Y-122921978D01*
X127845057Y-122295638D01*
X127842681Y-121733935D01*
X127840086Y-121235137D01*
X127837261Y-120797509D01*
X127834195Y-120419320D01*
X127830877Y-120098835D01*
X127827298Y-119834322D01*
X127823445Y-119624047D01*
X127819309Y-119466277D01*
X127814879Y-119359279D01*
X127810144Y-119301320D01*
X127807219Y-119289444D01*
X127787395Y-119278488D01*
X127742991Y-119269172D01*
X127669137Y-119261376D01*
X127560965Y-119254982D01*
X127413606Y-119249870D01*
X127222190Y-119245921D01*
X126981849Y-119243015D01*
X126687713Y-119241034D01*
X126340552Y-119239876D01*
X126340552Y-120252334D01*
X127566759Y-120252334D01*
X127566759Y-121415407D01*
X127565827Y-121702212D01*
X127563188Y-121963321D01*
X127559075Y-122189714D01*
X127553721Y-122372368D01*
X127547360Y-122502261D01*
X127540224Y-122570374D01*
X127536676Y-122578479D01*
X127499718Y-122552380D01*
X127432308Y-122484105D01*
X127352745Y-122392808D01*
X127275497Y-122302548D01*
X127161088Y-122172673D01*
X127021705Y-122016839D01*
X126869535Y-121848702D01*
X126769724Y-121739486D01*
X126340552Y-121271834D01*
X126340552Y-120252334D01*
X126340552Y-119239876D01*
X126334914Y-119239857D01*
X125918583Y-119239367D01*
X125760695Y-119239336D01*
X125330668Y-119239514D01*
X124965351Y-119240151D01*
X124659386Y-119241400D01*
X124448690Y-119243084D01*
X124448690Y-120252334D01*
X125569793Y-120252334D01*
X125569793Y-121469004D01*
X125569382Y-121810850D01*
X125567942Y-122085229D01*
X125565159Y-122299711D01*
X125560722Y-122461863D01*
X125554318Y-122579252D01*
X125545636Y-122659446D01*
X125534362Y-122710011D01*
X125520184Y-122738517D01*
X125517263Y-122741930D01*
X125437261Y-122787152D01*
X125306882Y-122818485D01*
X125144650Y-122835693D01*
X124969086Y-122838539D01*
X124798714Y-122826785D01*
X124652057Y-122800195D01*
X124547637Y-122758533D01*
X124541464Y-122754402D01*
X124448690Y-122689304D01*
X124448690Y-120252334D01*
X124448690Y-119243084D01*
X124407416Y-119243415D01*
X124204082Y-119246347D01*
X124044026Y-119250351D01*
X123921890Y-119255580D01*
X123832317Y-119262186D01*
X123769948Y-119270323D01*
X123729425Y-119280144D01*
X123705390Y-119291802D01*
X123697951Y-119298293D01*
X123685298Y-119318668D01*
X123674713Y-119354491D01*
X123666017Y-119411970D01*
X123659031Y-119497314D01*
X123653574Y-119616731D01*
X123649468Y-119776432D01*
X123646533Y-119982624D01*
X123644591Y-120241517D01*
X123643461Y-120559319D01*
X123642965Y-120942239D01*
X123642897Y-121204621D01*
X123642897Y-123051991D01*
X123730038Y-123290115D01*
X123813435Y-123488439D01*
X123891587Y-123613704D01*
X123963996Y-123665148D01*
X123977149Y-123666514D01*
X124036717Y-123682837D01*
X124119848Y-123722132D01*
X124120616Y-123722561D01*
X124169339Y-123742026D01*
X124242467Y-123756671D01*
X124349004Y-123767083D01*
X124497952Y-123773854D01*
X124698313Y-123777572D01*
X124959089Y-123778828D01*
X124979848Y-123778839D01*
X125235095Y-123778316D01*
X125431443Y-123775960D01*
X125580060Y-123770853D01*
X125692111Y-123762075D01*
X125778762Y-123748709D01*
X125851178Y-123729835D01*
X125920527Y-123704536D01*
X125930016Y-123700679D01*
X126045136Y-123647090D01*
X126116600Y-123589765D01*
X126168456Y-123505639D01*
X126194085Y-123447429D01*
X126256038Y-123289162D01*
X126295371Y-123156607D01*
X126320187Y-123015638D01*
X126337729Y-122842423D01*
X126358069Y-122599869D01*
X126504860Y-122804905D01*
X126586423Y-122917805D01*
X126656330Y-123012769D01*
X126697550Y-123066806D01*
X126736021Y-123114076D01*
X126811350Y-123206320D01*
X126914190Y-123332103D01*
X127035193Y-123479990D01*
X127096226Y-123554546D01*
X127254969Y-123749130D01*
X127373279Y-123897746D01*
X127457098Y-124010677D01*
X127512366Y-124098204D01*
X127545024Y-124170612D01*
X127561014Y-124238183D01*
X127566276Y-124311200D01*
X127566759Y-124368954D01*
X127566759Y-124566958D01*
X125641095Y-124566958D01*
X125224972Y-124567034D01*
X124873361Y-124567400D01*
X124580708Y-124568261D01*
X124341455Y-124569823D01*
X124150046Y-124572291D01*
X124000927Y-124575871D01*
X123888539Y-124580768D01*
X123807328Y-124587188D01*
X123751738Y-124595337D01*
X123716211Y-124605419D01*
X123695193Y-124617640D01*
X123683127Y-124632206D01*
X123679164Y-124639528D01*
X123670404Y-124693838D01*
X123662792Y-124813794D01*
X123656315Y-124990986D01*
X123650963Y-125217006D01*
X123646723Y-125483444D01*
X123643583Y-125781890D01*
X123641533Y-126103937D01*
X123640560Y-126441173D01*
X123640653Y-126785191D01*
G37*
X123640653Y-126785191D02*
X123641799Y-127127581D01*
X123643988Y-127459933D01*
X123647208Y-127773839D01*
X123651447Y-128060888D01*
X123656693Y-128312673D01*
X123662935Y-128520783D01*
X123670160Y-128676810D01*
X123678358Y-128772344D01*
X123684938Y-128799040D01*
X123741264Y-128821789D01*
X123847040Y-128836807D01*
X123982019Y-128844093D01*
X124125955Y-128843647D01*
X124258603Y-128835471D01*
X124359714Y-128819563D01*
X124406648Y-128799040D01*
X124417604Y-128766961D01*
X124426684Y-128693070D01*
X124434013Y-128572546D01*
X124439712Y-128400568D01*
X124443906Y-128172314D01*
X124446717Y-127882963D01*
X124448269Y-127527695D01*
X124448690Y-127152242D01*
X124448910Y-126760374D01*
X124449720Y-126436981D01*
X124451343Y-126175502D01*
X124454003Y-125969376D01*
X124457924Y-125812043D01*
X124463330Y-125696940D01*
X124470444Y-125617508D01*
X124479491Y-125567185D01*
X124490694Y-125539410D01*
X124504107Y-125527692D01*
X124563549Y-125517107D01*
X124672436Y-125509141D01*
X124810156Y-125505143D01*
X124851586Y-125504919D01*
X124993729Y-125507546D01*
X125112883Y-125514524D01*
X125188435Y-125524504D01*
X125199066Y-125527692D01*
X125216146Y-125542304D01*
X125229371Y-125576035D01*
X125239218Y-125637360D01*
X125246163Y-125734752D01*
X125250680Y-125876685D01*
X125253246Y-126071634D01*
X125254338Y-126328071D01*
X125254483Y-126514428D01*
X125255542Y-126838641D01*
X125258872Y-127093311D01*
X125264699Y-127283897D01*
X125273252Y-127415862D01*
X125284758Y-127494665D01*
X125296524Y-127523412D01*
X125356356Y-127547481D01*
X125478198Y-127562800D01*
X125654372Y-127568425D01*
X125663154Y-127568435D01*
X125818730Y-127566661D01*
X125918913Y-127559376D01*
X125978335Y-127543639D01*
X126011633Y-127516505D01*
X126024009Y-127495864D01*
X126035735Y-127434155D01*
X126045453Y-127304107D01*
X126052923Y-127112392D01*
X126057906Y-126865685D01*
X126060164Y-126570659D01*
X126060276Y-126482866D01*
X126060276Y-125542438D01*
X127041241Y-125542438D01*
X127041241Y-127147383D01*
X127041091Y-127558091D01*
X127041389Y-127900044D01*
X127043261Y-128179521D01*
X127047830Y-128402803D01*
X127056222Y-128576168D01*
X127069560Y-128705895D01*
X127088970Y-128798263D01*
X127115576Y-128859552D01*
X127150502Y-128896041D01*
X127194874Y-128914009D01*
X127249814Y-128919734D01*
X127316449Y-128919497D01*
X127358538Y-128919099D01*
X127566759Y-128919099D01*
X127566759Y-129185743D01*
X127565066Y-129323769D01*
X127557604Y-129400760D01*
X127540794Y-129430679D01*
X127511061Y-129427492D01*
X127505448Y-129425103D01*
X127238208Y-129334825D01*
X126949391Y-129296531D01*
X126851742Y-129294393D01*
X126568276Y-129294502D01*
X126467294Y-129657440D01*
X126422034Y-129822797D01*
X126395689Y-129934000D01*
X126386872Y-130008718D01*
X126394196Y-130064615D01*
X126416274Y-130119358D01*
X126429018Y-130145072D01*
X126491724Y-130269764D01*
X127041241Y-130269764D01*
X127041241Y-133083649D01*
X126130345Y-133083649D01*
X126130345Y-131643496D01*
X126129933Y-131238744D01*
X126128069Y-130901664D01*
X126123816Y-130624895D01*
X126116232Y-130401073D01*
X126104379Y-130222838D01*
X126087318Y-130082826D01*
X126064108Y-129973676D01*
X126033811Y-129888025D01*
X125995486Y-129818510D01*
X125948195Y-129757771D01*
X125890998Y-129698443D01*
X125880896Y-129688621D01*
X125774400Y-129600000D01*
X125655937Y-129534235D01*
X125514239Y-129488829D01*
X125338037Y-129461286D01*
X125116061Y-129449110D01*
X124837042Y-129449804D01*
X124805875Y-129450478D01*
X124592311Y-129456349D01*
X124435239Y-129463923D01*
X124321083Y-129475126D01*
X124236266Y-129491886D01*
X124167213Y-129516129D01*
X124100347Y-129549782D01*
X124098345Y-129550895D01*
X123911184Y-129677196D01*
X123782302Y-129819644D01*
X123699965Y-129991384D01*
X123697022Y-130000464D01*
X123683336Y-130053703D01*
X123672089Y-130124030D01*
X123663057Y-130218604D01*
X123656018Y-130344585D01*
X123650749Y-130509132D01*
X123647025Y-130719403D01*
X123644625Y-130982558D01*
X123643324Y-131305756D01*
X123642899Y-131696156D01*
X123642897Y-131736557D01*
X123643063Y-132122709D01*
X123643759Y-132441291D01*
X123645277Y-132699770D01*
X123647910Y-132905612D01*
X123651951Y-133066286D01*
X123657693Y-133189256D01*
X123665429Y-133281991D01*
X123675451Y-133351956D01*
X123688054Y-133406619D01*
X123703530Y-133453447D01*
X123711023Y-133472740D01*
X123806731Y-133632593D01*
X123954441Y-133782108D01*
X124136368Y-133904228D01*
X124187248Y-133929465D01*
X124268088Y-133953391D01*
X124385721Y-133972992D01*
X124519673Y-133986785D01*
X124649470Y-133993291D01*
X124754637Y-133991029D01*
X124814700Y-133978519D01*
X124819055Y-133975158D01*
X124841312Y-133926254D01*
X124874424Y-133825416D01*
X124912595Y-133693598D01*
X124950026Y-133551753D01*
X124980922Y-133420835D01*
X124999147Y-133324215D01*
X124997398Y-133212728D01*
X124950056Y-133138912D01*
X124850172Y-133097627D01*
X124690796Y-133083732D01*
X124673911Y-133083649D01*
X124448690Y-133083649D01*
X124448690Y-130391699D01*
X124558172Y-130368250D01*
X124665898Y-130354280D01*
X124809802Y-130347099D01*
X124964237Y-130346700D01*
X125103557Y-130353075D01*
X125202113Y-130366216D01*
X125210690Y-130368448D01*
X125289517Y-130391071D01*
X125290287Y-131878054D01*
X125290609Y-132273325D01*
X125291825Y-132601106D01*
X125294984Y-132868947D01*
X125301129Y-133084396D01*
X125311309Y-133254999D01*
X125326570Y-133388306D01*
X125347957Y-133491865D01*
X125376517Y-133573222D01*
X125413298Y-133639927D01*
X125459344Y-133699528D01*
X125515703Y-133759571D01*
X125556858Y-133800907D01*
X125649862Y-133884363D01*
X125746264Y-133945272D01*
X125860368Y-133988018D01*
X126006479Y-134016987D01*
X126198904Y-134036563D01*
X126357873Y-134046449D01*
X126697282Y-134051482D01*
X126994487Y-134029251D01*
X127241432Y-133980800D01*
X127429521Y-133907470D01*
X127566759Y-133832493D01*
X127561543Y-137041847D01*
X127480452Y-136793631D01*
X127375195Y-136519082D01*
X127262634Y-136313987D01*
X127235894Y-136334113D01*
X127167977Y-136399260D01*
X127067067Y-136501187D01*
X126941346Y-136631655D01*
X126824493Y-136755209D01*
X126396372Y-137211439D01*
X126499036Y-137426791D01*
X126555010Y-137559505D01*
X126590224Y-137689769D01*
X126611141Y-137846882D01*
X126620022Y-137975306D01*
X126638345Y-138308469D01*
X126899856Y-138415869D01*
X127032976Y-138468274D01*
X127115971Y-138493351D01*
X127163011Y-138493606D01*
X127188264Y-138471543D01*
X127190632Y-138467269D01*
X127252685Y-138401217D01*
X127351758Y-138340611D01*
X127455757Y-138303227D01*
X127494950Y-138298715D01*
X127556988Y-138319830D01*
X127570674Y-138368887D01*
X127540417Y-138424461D01*
X127470632Y-138465122D01*
X127460111Y-138467912D01*
X127336399Y-138526913D01*
X127249715Y-138626907D01*
X127216423Y-138748885D01*
X127216414Y-138750952D01*
X127244573Y-138876528D01*
X127316961Y-138980682D01*
X127415443Y-139041594D01*
X127464198Y-139049085D01*
X127566759Y-139049085D01*
X127566759Y-140587342D01*
X127847035Y-140587342D01*
X127848431Y-139527445D01*
X127848976Y-139218862D01*
X127850018Y-138978221D01*
X127852033Y-138798427D01*
X127855495Y-138672385D01*
X127860878Y-138593000D01*
X127868656Y-138553178D01*
X127879303Y-138545822D01*
X127893296Y-138563838D01*
X127910520Y-138598863D01*
X127963662Y-138721992D01*
X128027337Y-138881568D01*
X128094324Y-139057995D01*
X128157403Y-139231677D01*
X128209353Y-139383017D01*
X128242952Y-139492421D01*
X128249229Y-139518065D01*
X128282359Y-139638114D01*
X128320681Y-139743176D01*
X128375224Y-139875308D01*
X128439457Y-140036722D01*
X128507916Y-140212947D01*
X128575135Y-140389509D01*
X128635648Y-140551937D01*
X128683992Y-140685759D01*
X128714700Y-140776503D01*
X128722897Y-140808275D01*
X128735291Y-140854329D01*
X128769865Y-140958829D01*
X128822710Y-141110580D01*
X128889915Y-141298389D01*
X128967569Y-141511060D01*
X128983122Y-141553193D01*
X129075393Y-141803816D01*
X129170561Y-142064217D01*
X129261150Y-142313811D01*
X129339686Y-142532014D01*
X129391932Y-142678996D01*
X129457728Y-142855289D01*
X129516105Y-142991590D01*
X129561972Y-143076892D01*
X129587155Y-143101079D01*
X129598170Y-143089534D01*
X129607336Y-143051150D01*
X129614791Y-142980299D01*
X129620674Y-142871357D01*
X129625122Y-142718697D01*
X129628272Y-142516693D01*
X129630263Y-142259719D01*
X129631233Y-141942149D01*
X129631318Y-141558356D01*
X129631027Y-141309572D01*
X129630078Y-140948582D01*
X129628432Y-140609587D01*
X129626179Y-140300163D01*
X129623410Y-140027887D01*
X129620215Y-139800336D01*
X129616685Y-139625086D01*
X129612910Y-139509714D01*
X129608980Y-139461797D01*
X129608977Y-139461788D01*
X129583247Y-139393802D01*
X129541943Y-139291058D01*
X129525985Y-139252413D01*
X129475180Y-139125958D01*
X129416733Y-138974378D01*
X129387474Y-138896082D01*
X129342228Y-138779068D01*
X129303610Y-138689419D01*
X129285472Y-138655234D01*
X129260448Y-138594373D01*
X129237242Y-138498743D01*
X129236402Y-138494080D01*
X129215310Y-138419368D01*
X129170688Y-138290363D01*
X129107760Y-138121198D01*
X129031747Y-137926009D01*
X128968714Y-137769623D01*
X128888507Y-137570746D01*
X128819259Y-137393678D01*
X128765580Y-137250646D01*
X128732078Y-137153879D01*
X128722897Y-137117628D01*
X128709701Y-137062008D01*
X128674409Y-136956539D01*
X128623467Y-136819905D01*
X128597483Y-136754049D01*
X128489202Y-136480974D01*
X128386515Y-136215904D01*
X128295670Y-135975310D01*
X128222915Y-135775663D01*
X128187204Y-135672423D01*
X128147884Y-135561116D01*
X128090733Y-135407267D01*
X128025623Y-135237258D01*
X127997703Y-135165924D01*
X127864552Y-134828257D01*
X127855302Y-127083905D01*
X127854018Y-126108379D01*
X127852579Y-125206156D01*
X127850974Y-124375504D01*
X127849192Y-123614689D01*
X127847223Y-122921978D01*
X127845057Y-122295638D01*
X127842681Y-121733935D01*
X127840086Y-121235137D01*
X127837261Y-120797509D01*
X127834195Y-120419320D01*
X127830877Y-120098835D01*
X127827298Y-119834322D01*
X127823445Y-119624047D01*
X127819309Y-119466277D01*
X127814879Y-119359279D01*
X127810144Y-119301320D01*
X127807219Y-119289444D01*
X127787395Y-119278488D01*
X127742991Y-119269172D01*
X127669137Y-119261376D01*
X127560965Y-119254982D01*
X127413606Y-119249870D01*
X127222190Y-119245921D01*
X126981849Y-119243015D01*
X126687713Y-119241034D01*
X126340552Y-119239876D01*
X126340552Y-120252334D01*
X127566759Y-120252334D01*
X127566759Y-121415407D01*
X127565827Y-121702212D01*
X127563188Y-121963321D01*
X127559075Y-122189714D01*
X127553721Y-122372368D01*
X127547360Y-122502261D01*
X127540224Y-122570374D01*
X127536676Y-122578479D01*
X127499718Y-122552380D01*
X127432308Y-122484105D01*
X127352745Y-122392808D01*
X127275497Y-122302548D01*
X127161088Y-122172673D01*
X127021705Y-122016839D01*
X126869535Y-121848702D01*
X126769724Y-121739486D01*
X126340552Y-121271834D01*
X126340552Y-120252334D01*
X126340552Y-119239876D01*
X126334914Y-119239857D01*
X125918583Y-119239367D01*
X125760695Y-119239336D01*
X125330668Y-119239514D01*
X124965351Y-119240151D01*
X124659386Y-119241400D01*
X124448690Y-119243084D01*
X124448690Y-120252334D01*
X125569793Y-120252334D01*
X125569793Y-121469004D01*
X125569382Y-121810850D01*
X125567942Y-122085229D01*
X125565159Y-122299711D01*
X125560722Y-122461863D01*
X125554318Y-122579252D01*
X125545636Y-122659446D01*
X125534362Y-122710011D01*
X125520184Y-122738517D01*
X125517263Y-122741930D01*
X125437261Y-122787152D01*
X125306882Y-122818485D01*
X125144650Y-122835693D01*
X124969086Y-122838539D01*
X124798714Y-122826785D01*
X124652057Y-122800195D01*
X124547637Y-122758533D01*
X124541464Y-122754402D01*
X124448690Y-122689304D01*
X124448690Y-120252334D01*
X124448690Y-119243084D01*
X124407416Y-119243415D01*
X124204082Y-119246347D01*
X124044026Y-119250351D01*
X123921890Y-119255580D01*
X123832317Y-119262186D01*
X123769948Y-119270323D01*
X123729425Y-119280144D01*
X123705390Y-119291802D01*
X123697951Y-119298293D01*
X123685298Y-119318668D01*
X123674713Y-119354491D01*
X123666017Y-119411970D01*
X123659031Y-119497314D01*
X123653574Y-119616731D01*
X123649468Y-119776432D01*
X123646533Y-119982624D01*
X123644591Y-120241517D01*
X123643461Y-120559319D01*
X123642965Y-120942239D01*
X123642897Y-121204621D01*
X123642897Y-123051991D01*
X123730038Y-123290115D01*
X123813435Y-123488439D01*
X123891587Y-123613704D01*
X123963996Y-123665148D01*
X123977149Y-123666514D01*
X124036717Y-123682837D01*
X124119848Y-123722132D01*
X124120616Y-123722561D01*
X124169339Y-123742026D01*
X124242467Y-123756671D01*
X124349004Y-123767083D01*
X124497952Y-123773854D01*
X124698313Y-123777572D01*
X124959089Y-123778828D01*
X124979848Y-123778839D01*
X125235095Y-123778316D01*
X125431443Y-123775960D01*
X125580060Y-123770853D01*
X125692111Y-123762075D01*
X125778762Y-123748709D01*
X125851178Y-123729835D01*
X125920527Y-123704536D01*
X125930016Y-123700679D01*
X126045136Y-123647090D01*
X126116600Y-123589765D01*
X126168456Y-123505639D01*
X126194085Y-123447429D01*
X126256038Y-123289162D01*
X126295371Y-123156607D01*
X126320187Y-123015638D01*
X126337729Y-122842423D01*
X126358069Y-122599869D01*
X126504860Y-122804905D01*
X126586423Y-122917805D01*
X126656330Y-123012769D01*
X126697550Y-123066806D01*
X126736021Y-123114076D01*
X126811350Y-123206320D01*
X126914190Y-123332103D01*
X127035193Y-123479990D01*
X127096226Y-123554546D01*
X127254969Y-123749130D01*
X127373279Y-123897746D01*
X127457098Y-124010677D01*
X127512366Y-124098204D01*
X127545024Y-124170612D01*
X127561014Y-124238183D01*
X127566276Y-124311200D01*
X127566759Y-124368954D01*
X127566759Y-124566958D01*
X125641095Y-124566958D01*
X125224972Y-124567034D01*
X124873361Y-124567400D01*
X124580708Y-124568261D01*
X124341455Y-124569823D01*
X124150046Y-124572291D01*
X124000927Y-124575871D01*
X123888539Y-124580768D01*
X123807328Y-124587188D01*
X123751738Y-124595337D01*
X123716211Y-124605419D01*
X123695193Y-124617640D01*
X123683127Y-124632206D01*
X123679164Y-124639528D01*
X123670404Y-124693838D01*
X123662792Y-124813794D01*
X123656315Y-124990986D01*
X123650963Y-125217006D01*
X123646723Y-125483444D01*
X123643583Y-125781890D01*
X123641533Y-126103937D01*
X123640560Y-126441173D01*
X123640653Y-126785191D01*
%TD*%
M02*
