M48
; DRILL file {KiCad 5.1.12-84ad8e8a86~92~ubuntu16.04.1} date Seg 25 Abr 2022 19:41:20 -03
; FORMAT={-:-/ absolute / metric / decimal}
; #@! TF.CreationDate,2022-04-25T19:41:20-03:00
; #@! TF.GenerationSoftware,Kicad,Pcbnew,5.1.12-84ad8e8a86~92~ubuntu16.04.1
; #@! TF.FileFunction,Plated,1,2,PTH
FMAT,2
METRIC
T1C0.400
T2C0.700
T3C0.750
T4C0.762
T5C0.800
T6C0.900
T7C1.000
T8C1.190
T9C1.300
T10C1.500
%
G90
G05
T1
X106.06Y-117.94
X134.3Y-68.6
X139.0Y-107.9
T2
X100.7Y-110.0
T3
X131.6Y-62.3
X131.6Y-63.57
X131.6Y-64.84
X138.1Y-70.36
X138.1Y-71.63
X138.1Y-72.9
T4
X127.1Y-80.3
X127.1Y-82.84
X127.1Y-85.38
X127.1Y-87.92
X127.1Y-90.46
X127.1Y-93.0
X152.3Y-102.8
X152.3Y-105.34
X152.3Y-107.88
X152.3Y-110.42
X152.3Y-112.96
X152.3Y-115.5
T5
X105.5Y-66.6
X105.5Y-69.14
X105.5Y-71.68
X113.12Y-66.6
X113.12Y-69.14
X113.12Y-71.68
T6
X102.1Y-78.76
X102.1Y-81.3
X143.26Y-132.3
X145.8Y-132.3
X150.1Y-132.3
X152.64Y-132.3
T7
X113.405Y-104.05
X113.405Y-106.59
X113.405Y-109.13
X113.405Y-111.67
X113.405Y-114.21
X113.405Y-116.75
X113.405Y-119.29
X113.405Y-121.83
X113.405Y-124.37
X113.405Y-126.91
X113.405Y-129.45
X113.405Y-131.99
X113.405Y-134.53
X113.405Y-137.07
X113.405Y-139.61
X113.9Y-83.6
X121.5Y-83.6
X136.16Y-104.05
X136.16Y-106.59
X136.16Y-109.13
X136.16Y-111.67
X136.16Y-114.21
X136.16Y-116.75
X136.16Y-119.29
X136.16Y-121.83
X136.16Y-124.37
X136.16Y-126.91
X136.16Y-129.45
X136.16Y-131.99
X136.16Y-134.53
X136.16Y-137.07
X136.16Y-139.61
X145.29Y-61.76
X145.29Y-71.92
X145.29Y-74.46
X152.91Y-61.76
X152.91Y-71.92
X152.91Y-74.46
T8
X122.2Y-69.1
X122.2Y-71.64
X122.3Y-62.3
X122.3Y-64.84
T9
X101.3Y-140.6
X102.1Y-88.1
X102.1Y-93.1
X106.3Y-140.6
X118.6Y-52.7
X123.6Y-52.7
T10
X130.3Y-53.0
X152.9Y-53.0
T0
M30
