%TF.GenerationSoftware,KiCad,Pcbnew,5.1.12-84ad8e8a86~92~ubuntu16.04.1*%
%TF.CreationDate,2022-04-25T15:27:55-03:00*%
%TF.ProjectId,Avionica,4176696f-6e69-4636-912e-6b696361645f,rev?*%
%TF.SameCoordinates,Original*%
%TF.FileFunction,Paste,Top*%
%TF.FilePolarity,Positive*%
%FSLAX46Y46*%
G04 Gerber Fmt 4.6, Leading zero omitted, Abs format (unit mm)*
G04 Created by KiCad (PCBNEW 5.1.12-84ad8e8a86~92~ubuntu16.04.1) date 2022-04-25 15:27:55*
%MOMM*%
%LPD*%
G01*
G04 APERTURE LIST*
%ADD10R,1.200000X0.900000*%
%ADD11R,0.650000X1.060000*%
G04 APERTURE END LIST*
%TO.C,C1*%
G36*
G01*
X109625000Y-109750000D02*
X110575000Y-109750000D01*
G75*
G02*
X110825000Y-110000000I0J-250000D01*
G01*
X110825000Y-110500000D01*
G75*
G02*
X110575000Y-110750000I-250000J0D01*
G01*
X109625000Y-110750000D01*
G75*
G02*
X109375000Y-110500000I0J250000D01*
G01*
X109375000Y-110000000D01*
G75*
G02*
X109625000Y-109750000I250000J0D01*
G01*
G37*
G36*
G01*
X109625000Y-107850000D02*
X110575000Y-107850000D01*
G75*
G02*
X110825000Y-108100000I0J-250000D01*
G01*
X110825000Y-108600000D01*
G75*
G02*
X110575000Y-108850000I-250000J0D01*
G01*
X109625000Y-108850000D01*
G75*
G02*
X109375000Y-108600000I0J250000D01*
G01*
X109375000Y-108100000D01*
G75*
G02*
X109625000Y-107850000I250000J0D01*
G01*
G37*
%TD*%
%TO.C,C2*%
G36*
G01*
X102450000Y-120075000D02*
X102450000Y-119125000D01*
G75*
G02*
X102700000Y-118875000I250000J0D01*
G01*
X103200000Y-118875000D01*
G75*
G02*
X103450000Y-119125000I0J-250000D01*
G01*
X103450000Y-120075000D01*
G75*
G02*
X103200000Y-120325000I-250000J0D01*
G01*
X102700000Y-120325000D01*
G75*
G02*
X102450000Y-120075000I0J250000D01*
G01*
G37*
G36*
G01*
X104350000Y-120075000D02*
X104350000Y-119125000D01*
G75*
G02*
X104600000Y-118875000I250000J0D01*
G01*
X105100000Y-118875000D01*
G75*
G02*
X105350000Y-119125000I0J-250000D01*
G01*
X105350000Y-120075000D01*
G75*
G02*
X105100000Y-120325000I-250000J0D01*
G01*
X104600000Y-120325000D01*
G75*
G02*
X104350000Y-120075000I0J250000D01*
G01*
G37*
%TD*%
%TO.C,C3*%
G36*
G01*
X102350000Y-105975000D02*
X102350000Y-105025000D01*
G75*
G02*
X102600000Y-104775000I250000J0D01*
G01*
X103100000Y-104775000D01*
G75*
G02*
X103350000Y-105025000I0J-250000D01*
G01*
X103350000Y-105975000D01*
G75*
G02*
X103100000Y-106225000I-250000J0D01*
G01*
X102600000Y-106225000D01*
G75*
G02*
X102350000Y-105975000I0J250000D01*
G01*
G37*
G36*
G01*
X104250000Y-105975000D02*
X104250000Y-105025000D01*
G75*
G02*
X104500000Y-104775000I250000J0D01*
G01*
X105000000Y-104775000D01*
G75*
G02*
X105250000Y-105025000I0J-250000D01*
G01*
X105250000Y-105975000D01*
G75*
G02*
X105000000Y-106225000I-250000J0D01*
G01*
X104500000Y-106225000D01*
G75*
G02*
X104250000Y-105975000I0J250000D01*
G01*
G37*
%TD*%
D10*
%TO.C,D3*%
X141090000Y-62260000D03*
X141090000Y-65560000D03*
%TD*%
%TO.C,F1*%
G36*
G01*
X98625000Y-118750000D02*
X99775000Y-118750000D01*
G75*
G02*
X100025000Y-119000000I0J-250000D01*
G01*
X100025000Y-120100000D01*
G75*
G02*
X99775000Y-120350000I-250000J0D01*
G01*
X98625000Y-120350000D01*
G75*
G02*
X98375000Y-120100000I0J250000D01*
G01*
X98375000Y-119000000D01*
G75*
G02*
X98625000Y-118750000I250000J0D01*
G01*
G37*
G36*
G01*
X98625000Y-121600000D02*
X99775000Y-121600000D01*
G75*
G02*
X100025000Y-121850000I0J-250000D01*
G01*
X100025000Y-122950000D01*
G75*
G02*
X99775000Y-123200000I-250000J0D01*
G01*
X98625000Y-123200000D01*
G75*
G02*
X98375000Y-122950000I0J250000D01*
G01*
X98375000Y-121850000D01*
G75*
G02*
X98625000Y-121600000I250000J0D01*
G01*
G37*
%TD*%
%TO.C,R1*%
G36*
G01*
X108800000Y-103649998D02*
X108800000Y-104550002D01*
G75*
G02*
X108550002Y-104800000I-249998J0D01*
G01*
X108024998Y-104800000D01*
G75*
G02*
X107775000Y-104550002I0J249998D01*
G01*
X107775000Y-103649998D01*
G75*
G02*
X108024998Y-103400000I249998J0D01*
G01*
X108550002Y-103400000D01*
G75*
G02*
X108800000Y-103649998I0J-249998D01*
G01*
G37*
G36*
G01*
X110625000Y-103649998D02*
X110625000Y-104550002D01*
G75*
G02*
X110375002Y-104800000I-249998J0D01*
G01*
X109849998Y-104800000D01*
G75*
G02*
X109600000Y-104550002I0J249998D01*
G01*
X109600000Y-103649998D01*
G75*
G02*
X109849998Y-103400000I249998J0D01*
G01*
X110375002Y-103400000D01*
G75*
G02*
X110625000Y-103649998I0J-249998D01*
G01*
G37*
%TD*%
%TO.C,R2*%
G36*
G01*
X140850002Y-105900000D02*
X139949998Y-105900000D01*
G75*
G02*
X139700000Y-105650002I0J249998D01*
G01*
X139700000Y-105124998D01*
G75*
G02*
X139949998Y-104875000I249998J0D01*
G01*
X140850002Y-104875000D01*
G75*
G02*
X141100000Y-105124998I0J-249998D01*
G01*
X141100000Y-105650002D01*
G75*
G02*
X140850002Y-105900000I-249998J0D01*
G01*
G37*
G36*
G01*
X140850002Y-107725000D02*
X139949998Y-107725000D01*
G75*
G02*
X139700000Y-107475002I0J249998D01*
G01*
X139700000Y-106949998D01*
G75*
G02*
X139949998Y-106700000I249998J0D01*
G01*
X140850002Y-106700000D01*
G75*
G02*
X141100000Y-106949998I0J-249998D01*
G01*
X141100000Y-107475002D01*
G75*
G02*
X140850002Y-107725000I-249998J0D01*
G01*
G37*
%TD*%
%TO.C,R3*%
G36*
G01*
X140850002Y-112012500D02*
X139949998Y-112012500D01*
G75*
G02*
X139700000Y-111762502I0J249998D01*
G01*
X139700000Y-111237498D01*
G75*
G02*
X139949998Y-110987500I249998J0D01*
G01*
X140850002Y-110987500D01*
G75*
G02*
X141100000Y-111237498I0J-249998D01*
G01*
X141100000Y-111762502D01*
G75*
G02*
X140850002Y-112012500I-249998J0D01*
G01*
G37*
G36*
G01*
X140850002Y-110187500D02*
X139949998Y-110187500D01*
G75*
G02*
X139700000Y-109937502I0J249998D01*
G01*
X139700000Y-109412498D01*
G75*
G02*
X139949998Y-109162500I249998J0D01*
G01*
X140850002Y-109162500D01*
G75*
G02*
X141100000Y-109412498I0J-249998D01*
G01*
X141100000Y-109937502D01*
G75*
G02*
X140850002Y-110187500I-249998J0D01*
G01*
G37*
%TD*%
%TO.C,R4*%
G36*
G01*
X103400000Y-114949998D02*
X103400000Y-115850002D01*
G75*
G02*
X103150002Y-116100000I-249998J0D01*
G01*
X102624998Y-116100000D01*
G75*
G02*
X102375000Y-115850002I0J249998D01*
G01*
X102375000Y-114949998D01*
G75*
G02*
X102624998Y-114700000I249998J0D01*
G01*
X103150002Y-114700000D01*
G75*
G02*
X103400000Y-114949998I0J-249998D01*
G01*
G37*
G36*
G01*
X105225000Y-114949998D02*
X105225000Y-115850002D01*
G75*
G02*
X104975002Y-116100000I-249998J0D01*
G01*
X104449998Y-116100000D01*
G75*
G02*
X104200000Y-115850002I0J249998D01*
G01*
X104200000Y-114949998D01*
G75*
G02*
X104449998Y-114700000I249998J0D01*
G01*
X104975002Y-114700000D01*
G75*
G02*
X105225000Y-114949998I0J-249998D01*
G01*
G37*
%TD*%
%TO.C,R5*%
G36*
G01*
X107749998Y-116075000D02*
X108650002Y-116075000D01*
G75*
G02*
X108900000Y-116324998I0J-249998D01*
G01*
X108900000Y-116850002D01*
G75*
G02*
X108650002Y-117100000I-249998J0D01*
G01*
X107749998Y-117100000D01*
G75*
G02*
X107500000Y-116850002I0J249998D01*
G01*
X107500000Y-116324998D01*
G75*
G02*
X107749998Y-116075000I249998J0D01*
G01*
G37*
G36*
G01*
X107749998Y-117900000D02*
X108650002Y-117900000D01*
G75*
G02*
X108900000Y-118149998I0J-249998D01*
G01*
X108900000Y-118675002D01*
G75*
G02*
X108650002Y-118925000I-249998J0D01*
G01*
X107749998Y-118925000D01*
G75*
G02*
X107500000Y-118675002I0J249998D01*
G01*
X107500000Y-118149998D01*
G75*
G02*
X107749998Y-117900000I249998J0D01*
G01*
G37*
%TD*%
%TO.C,R6*%
G36*
G01*
X152149998Y-124062500D02*
X153050002Y-124062500D01*
G75*
G02*
X153300000Y-124312498I0J-249998D01*
G01*
X153300000Y-124837502D01*
G75*
G02*
X153050002Y-125087500I-249998J0D01*
G01*
X152149998Y-125087500D01*
G75*
G02*
X151900000Y-124837502I0J249998D01*
G01*
X151900000Y-124312498D01*
G75*
G02*
X152149998Y-124062500I249998J0D01*
G01*
G37*
G36*
G01*
X152149998Y-125887500D02*
X153050002Y-125887500D01*
G75*
G02*
X153300000Y-126137498I0J-249998D01*
G01*
X153300000Y-126662502D01*
G75*
G02*
X153050002Y-126912500I-249998J0D01*
G01*
X152149998Y-126912500D01*
G75*
G02*
X151900000Y-126662502I0J249998D01*
G01*
X151900000Y-126137498D01*
G75*
G02*
X152149998Y-125887500I249998J0D01*
G01*
G37*
%TD*%
%TO.C,R7*%
G36*
G01*
X100712500Y-66149998D02*
X100712500Y-67050002D01*
G75*
G02*
X100462502Y-67300000I-249998J0D01*
G01*
X99937498Y-67300000D01*
G75*
G02*
X99687500Y-67050002I0J249998D01*
G01*
X99687500Y-66149998D01*
G75*
G02*
X99937498Y-65900000I249998J0D01*
G01*
X100462502Y-65900000D01*
G75*
G02*
X100712500Y-66149998I0J-249998D01*
G01*
G37*
G36*
G01*
X98887500Y-66149998D02*
X98887500Y-67050002D01*
G75*
G02*
X98637502Y-67300000I-249998J0D01*
G01*
X98112498Y-67300000D01*
G75*
G02*
X97862500Y-67050002I0J249998D01*
G01*
X97862500Y-66149998D01*
G75*
G02*
X98112498Y-65900000I249998J0D01*
G01*
X98637502Y-65900000D01*
G75*
G02*
X98887500Y-66149998I0J-249998D01*
G01*
G37*
%TD*%
%TO.C,R8*%
G36*
G01*
X137449998Y-64900000D02*
X138350002Y-64900000D01*
G75*
G02*
X138600000Y-65149998I0J-249998D01*
G01*
X138600000Y-65675002D01*
G75*
G02*
X138350002Y-65925000I-249998J0D01*
G01*
X137449998Y-65925000D01*
G75*
G02*
X137200000Y-65675002I0J249998D01*
G01*
X137200000Y-65149998D01*
G75*
G02*
X137449998Y-64900000I249998J0D01*
G01*
G37*
G36*
G01*
X137449998Y-63075000D02*
X138350002Y-63075000D01*
G75*
G02*
X138600000Y-63324998I0J-249998D01*
G01*
X138600000Y-63850002D01*
G75*
G02*
X138350002Y-64100000I-249998J0D01*
G01*
X137449998Y-64100000D01*
G75*
G02*
X137200000Y-63850002I0J249998D01*
G01*
X137200000Y-63324998D01*
G75*
G02*
X137449998Y-63075000I249998J0D01*
G01*
G37*
%TD*%
%TO.C,R9*%
G36*
G01*
X130800000Y-71149998D02*
X130800000Y-72050002D01*
G75*
G02*
X130550002Y-72300000I-249998J0D01*
G01*
X130024998Y-72300000D01*
G75*
G02*
X129775000Y-72050002I0J249998D01*
G01*
X129775000Y-71149998D01*
G75*
G02*
X130024998Y-70900000I249998J0D01*
G01*
X130550002Y-70900000D01*
G75*
G02*
X130800000Y-71149998I0J-249998D01*
G01*
G37*
G36*
G01*
X132625000Y-71149998D02*
X132625000Y-72050002D01*
G75*
G02*
X132375002Y-72300000I-249998J0D01*
G01*
X131849998Y-72300000D01*
G75*
G02*
X131600000Y-72050002I0J249998D01*
G01*
X131600000Y-71149998D01*
G75*
G02*
X131849998Y-70900000I249998J0D01*
G01*
X132375002Y-70900000D01*
G75*
G02*
X132625000Y-71149998I0J-249998D01*
G01*
G37*
%TD*%
%TO.C,R10*%
G36*
G01*
X141649998Y-71075000D02*
X142550002Y-71075000D01*
G75*
G02*
X142800000Y-71324998I0J-249998D01*
G01*
X142800000Y-71850002D01*
G75*
G02*
X142550002Y-72100000I-249998J0D01*
G01*
X141649998Y-72100000D01*
G75*
G02*
X141400000Y-71850002I0J249998D01*
G01*
X141400000Y-71324998D01*
G75*
G02*
X141649998Y-71075000I249998J0D01*
G01*
G37*
G36*
G01*
X141649998Y-72900000D02*
X142550002Y-72900000D01*
G75*
G02*
X142800000Y-73149998I0J-249998D01*
G01*
X142800000Y-73675002D01*
G75*
G02*
X142550002Y-73925000I-249998J0D01*
G01*
X141649998Y-73925000D01*
G75*
G02*
X141400000Y-73675002I0J249998D01*
G01*
X141400000Y-73149998D01*
G75*
G02*
X141649998Y-72900000I249998J0D01*
G01*
G37*
%TD*%
%TO.C,R11*%
G36*
G01*
X118150002Y-95137500D02*
X117249998Y-95137500D01*
G75*
G02*
X117000000Y-94887502I0J249998D01*
G01*
X117000000Y-94362498D01*
G75*
G02*
X117249998Y-94112500I249998J0D01*
G01*
X118150002Y-94112500D01*
G75*
G02*
X118400000Y-94362498I0J-249998D01*
G01*
X118400000Y-94887502D01*
G75*
G02*
X118150002Y-95137500I-249998J0D01*
G01*
G37*
G36*
G01*
X118150002Y-93312500D02*
X117249998Y-93312500D01*
G75*
G02*
X117000000Y-93062502I0J249998D01*
G01*
X117000000Y-92537498D01*
G75*
G02*
X117249998Y-92287500I249998J0D01*
G01*
X118150002Y-92287500D01*
G75*
G02*
X118400000Y-92537498I0J-249998D01*
G01*
X118400000Y-93062502D01*
G75*
G02*
X118150002Y-93312500I-249998J0D01*
G01*
G37*
%TD*%
%TO.C,R12*%
G36*
G01*
X145249998Y-125900000D02*
X146150002Y-125900000D01*
G75*
G02*
X146400000Y-126149998I0J-249998D01*
G01*
X146400000Y-126675002D01*
G75*
G02*
X146150002Y-126925000I-249998J0D01*
G01*
X145249998Y-126925000D01*
G75*
G02*
X145000000Y-126675002I0J249998D01*
G01*
X145000000Y-126149998D01*
G75*
G02*
X145249998Y-125900000I249998J0D01*
G01*
G37*
G36*
G01*
X145249998Y-124075000D02*
X146150002Y-124075000D01*
G75*
G02*
X146400000Y-124324998I0J-249998D01*
G01*
X146400000Y-124850002D01*
G75*
G02*
X146150002Y-125100000I-249998J0D01*
G01*
X145249998Y-125100000D01*
G75*
G02*
X145000000Y-124850002I0J249998D01*
G01*
X145000000Y-124324998D01*
G75*
G02*
X145249998Y-124075000I249998J0D01*
G01*
G37*
%TD*%
D11*
%TO.C,U1*%
X102850000Y-112200000D03*
X103800000Y-112200000D03*
X104750000Y-112200000D03*
X104750000Y-110000000D03*
X102850000Y-110000000D03*
%TD*%
M02*
