%TF.GenerationSoftware,KiCad,Pcbnew,5.1.12-84ad8e8a86~92~ubuntu16.04.1*%
%TF.CreationDate,2022-04-25T15:27:55-03:00*%
%TF.ProjectId,Avionica,4176696f-6e69-4636-912e-6b696361645f,rev?*%
%TF.SameCoordinates,Original*%
%TF.FileFunction,Soldermask,Bot*%
%TF.FilePolarity,Negative*%
%FSLAX46Y46*%
G04 Gerber Fmt 4.6, Leading zero omitted, Abs format (unit mm)*
G04 Created by KiCad (PCBNEW 5.1.12-84ad8e8a86~92~ubuntu16.04.1) date 2022-04-25 15:27:55*
%MOMM*%
%LPD*%
G01*
G04 APERTURE LIST*
%ADD10O,2.300000X1.600000*%
%ADD11R,1.524000X1.524000*%
%ADD12C,1.524000*%
%ADD13R,2.000000X2.000000*%
%ADD14C,2.000000*%
%ADD15R,1.800000X1.800000*%
%ADD16C,1.800000*%
%ADD17C,3.000000*%
%ADD18C,2.600000*%
%ADD19R,2.600000X2.600000*%
%ADD20O,2.190000X1.740000*%
%ADD21O,1.500000X1.050000*%
%ADD22R,1.500000X1.050000*%
%ADD23R,1.600000X1.600000*%
%ADD24O,1.600000X1.600000*%
%ADD25C,1.700000*%
G04 APERTURE END LIST*
D10*
%TO.C,K1*%
X152910000Y-61760000D03*
X152910000Y-71920000D03*
X145290000Y-61760000D03*
X145290000Y-71920000D03*
X152910000Y-74460000D03*
X145290000Y-74460000D03*
%TD*%
D11*
%TO.C,A1*%
X152300000Y-115500000D03*
D12*
X152300000Y-112960000D03*
X152300000Y-110420000D03*
X152300000Y-107880000D03*
X152300000Y-105340000D03*
X152300000Y-102800000D03*
%TD*%
D11*
%TO.C,A2*%
X127100000Y-80300000D03*
D12*
X127100000Y-82840000D03*
X127100000Y-85380000D03*
X127100000Y-87920000D03*
X127100000Y-90460000D03*
X127100000Y-93000000D03*
%TD*%
D13*
%TO.C,BZ1*%
X113900000Y-83600000D03*
D14*
X121500000Y-83600000D03*
%TD*%
D15*
%TO.C,D1*%
X150100000Y-132300000D03*
D16*
X152640000Y-132300000D03*
%TD*%
%TO.C,D2*%
X102100000Y-78760000D03*
D15*
X102100000Y-81300000D03*
%TD*%
%TO.C,D4*%
X143260000Y-132300000D03*
D16*
X145800000Y-132300000D03*
%TD*%
D17*
%TO.C,F2*%
X130300000Y-53000000D03*
X152900000Y-53000000D03*
%TD*%
D18*
%TO.C,J1*%
X106300000Y-140600000D03*
D19*
X101300000Y-140600000D03*
%TD*%
%TO.C,J2*%
X102100000Y-88100000D03*
D18*
X102100000Y-93100000D03*
%TD*%
D20*
%TO.C,J3*%
X122300000Y-64840000D03*
G36*
G01*
X121454999Y-61430000D02*
X123145001Y-61430000D01*
G75*
G02*
X123395000Y-61679999I0J-249999D01*
G01*
X123395000Y-62920001D01*
G75*
G02*
X123145001Y-63170000I-249999J0D01*
G01*
X121454999Y-63170000D01*
G75*
G02*
X121205000Y-62920001I0J249999D01*
G01*
X121205000Y-61679999D01*
G75*
G02*
X121454999Y-61430000I249999J0D01*
G01*
G37*
%TD*%
%TO.C,J4*%
G36*
G01*
X121354999Y-68230000D02*
X123045001Y-68230000D01*
G75*
G02*
X123295000Y-68479999I0J-249999D01*
G01*
X123295000Y-69720001D01*
G75*
G02*
X123045001Y-69970000I-249999J0D01*
G01*
X121354999Y-69970000D01*
G75*
G02*
X121105000Y-69720001I0J249999D01*
G01*
X121105000Y-68479999D01*
G75*
G02*
X121354999Y-68230000I249999J0D01*
G01*
G37*
X122200000Y-71640000D03*
%TD*%
D19*
%TO.C,J5*%
X123600000Y-52700000D03*
D18*
X118600000Y-52700000D03*
%TD*%
D21*
%TO.C,Q1*%
X131600000Y-63570000D03*
X131600000Y-64840000D03*
D22*
X131600000Y-62300000D03*
%TD*%
%TO.C,Q2*%
X138100000Y-72900000D03*
D21*
X138100000Y-70360000D03*
X138100000Y-71630000D03*
%TD*%
D23*
%TO.C,U2*%
X105500000Y-66600000D03*
D24*
X113120000Y-71680000D03*
X105500000Y-69140000D03*
X113120000Y-69140000D03*
X105500000Y-71680000D03*
X113120000Y-66600000D03*
%TD*%
D25*
%TO.C,U3*%
X113405000Y-104050000D03*
X113405000Y-106590000D03*
X113405000Y-109130000D03*
X113405000Y-111670000D03*
X113405000Y-114210000D03*
X113405000Y-116750000D03*
X113405000Y-119290000D03*
X113405000Y-121830000D03*
X113405000Y-124370000D03*
X113405000Y-126910000D03*
X113405000Y-129450000D03*
X113405000Y-131990000D03*
X113405000Y-134530000D03*
X113405000Y-137070000D03*
X113405000Y-139610000D03*
X136160000Y-139610000D03*
X136160000Y-137070000D03*
X136160000Y-134530000D03*
X136160000Y-131990000D03*
X136160000Y-129450000D03*
X136160000Y-126910000D03*
X136160000Y-124370000D03*
X136160000Y-121830000D03*
X136160000Y-119290000D03*
X136160000Y-116750000D03*
X136160000Y-114210000D03*
X136160000Y-111670000D03*
X136160000Y-109130000D03*
X136160000Y-106590000D03*
X136160000Y-104050000D03*
%TD*%
M02*
